<svg xmlns="http://www.w3.org/2000/svg" version="1.1" xmlns:xlink="http://www.w3.org/1999/xlink" xmlns:svgjs="http://svgjs.dev/svgjs" width="1440" height="560" preserveAspectRatio="none" viewBox="0 0 1440 560"><g mask="url(&quot;#SvgjsMask1062&quot;)" fill="none"><rect width="1440" height="560" x="0" y="0" fill="url(&quot;#SvgjsLinearGradient1063&quot;)"></rect><path d="M186.803,702.345C236.676,701.392,290.336,694.675,317.305,652.712C346.106,607.899,341.656,549.469,314.513,503.633C287.887,458.669,239.027,430.515,186.803,432.332C137.378,434.052,99.619,469.951,73.613,512.016C45.772,557.049,20.309,612.362,47.371,657.867C74.097,702.807,134.526,703.343,186.803,702.345" fill="rgba(28, 83, 142, 0.4)" class="triangle-float2"></path><path d="M990.145734408261 432.25757085432195L923.1028708684621 311.30904337837944 802.1543433925195 378.3519069181783 869.1972069323184 499.3004343941208z" fill="rgba(28, 83, 142, 0.4)" class="triangle-float3"></path><path d="M23.9 149.05 a184.27 184.27 0 1 0 368.54 0 a184.27 184.27 0 1 0 -368.54 0z" fill="rgba(28, 83, 142, 0.4)" class="triangle-float2"></path><path d="M50.01 290.57 a115.44 115.44 0 1 0 230.88 0 a115.44 115.44 0 1 0 -230.88 0z" fill="rgba(28, 83, 142, 0.4)" class="triangle-float2"></path><path d="M1108.5132078947015 133.73699478529952L1090.1688860040194 264.26362734392933 1239.0398404533314 152.0813166759817z" fill="rgba(28, 83, 142, 0.4)" class="triangle-float2"></path><path d="M651.15 458.6 a102.44 102.44 0 1 0 204.88 0 a102.44 102.44 0 1 0 -204.88 0z" fill="rgba(28, 83, 142, 0.4)" class="triangle-float1"></path><path d="M653.6975639413974 206.1884373498911L655.4724807000284 104.5035243501307 552.012650941637 204.41352059126015z" fill="rgba(28, 83, 142, 0.4)" class="triangle-float1"></path><path d="M1298.4 354.24 a121.31 121.31 0 1 0 242.62 0 a121.31 121.31 0 1 0 -242.62 0z" fill="rgba(28, 83, 142, 0.4)" class="triangle-float1"></path><path d="M554.54 539.15 a100.46 100.46 0 1 0 200.92 0 a100.46 100.46 0 1 0 -200.92 0z" fill="rgba(28, 83, 142, 0.4)" class="triangle-float3"></path><path d="M408.1403369499995 620.9598752352174L474.8691886849442 495.46115777513535 349.3704712248622 428.73230604019056 282.64161948991745 554.2310235002726z" fill="rgba(28, 83, 142, 0.4)" class="triangle-float3"></path><path d="M406.95 209.18 a112.79 112.79 0 1 0 225.58 0 a112.79 112.79 0 1 0 -225.58 0z" fill="rgba(28, 83, 142, 0.4)" class="triangle-float1"></path><path d="M1121.4028908679525 36.10685132844178L966.9386514631889 17.14102751792677 947.9728276526739 171.6052669226903 1102.4370670574374 190.57109073320532z" fill="rgba(28, 83, 142, 0.4)" class="triangle-float2"></path><path d="M20.092409304743814 274.24991884552924L38.621094606021046 370.0591397215666 103.96784981735642 315.22670152510307z" fill="rgba(28, 83, 142, 0.4)" class="triangle-float3"></path><path d="M419.44 138.5 a155.16 155.16 0 1 0 310.32 0 a155.16 155.16 0 1 0 -310.32 0z" fill="rgba(28, 83, 142, 0.4)" class="triangle-float3"></path><path d="M1374.7582717153275 118.13797596663403L1401.7198848651663 271.90164766019006 1507.772571803235 186.02187510031314z" fill="rgba(28, 83, 142, 0.4)" class="triangle-float1"></path><path d="M633.0239271581589 339.56406980052213L743.5933826638328 299.43937237093104 665.9921940831516 231.98168829896883z" fill="rgba(28, 83, 142, 0.4)" class="triangle-float3"></path><path d="M110.18761059343953 5.360251470639167L1.5999171290973777-36.32265869777207-40.08299303931386 72.26503476657008 68.50470042502829 113.94794493498132z" fill="rgba(28, 83, 142, 0.4)" class="triangle-float3"></path><path d="M1369.6854129058408 75.01793902489332L1473.2945139047513 78.63604855812352 1476.9126234379814-24.973052440786844 1373.303522439071-28.59116197401704z" fill="rgba(28, 83, 142, 0.4)" class="triangle-float3"></path><path d="M573.1310250381474 259.9606750694239L473.46570631305616 407.41726005255674 628.4555433532719 420.97711375530594z" fill="rgba(28, 83, 142, 0.4)" class="triangle-float1"></path><path d="M1084.194,487.418C1104.395,487.965,1122.514,474.46,1131.452,456.336C1139.511,439.994,1133.562,421.589,1124.433,405.82C1115.328,390.093,1102.336,375.748,1084.194,374.705C1064.37,373.565,1044.536,383.234,1035.056,400.682C1025.922,417.495,1031.742,437.242,1041.173,453.89C1050.778,470.844,1064.715,486.89,1084.194,487.418" fill="rgba(28, 83, 142, 0.4)" class="triangle-float1"></path></g><defs><mask id="SvgjsMask1062"><rect width="1440" height="560" fill="#ffffff"></rect></mask><linearGradient x1="84.72%" y1="139.29%" x2="15.28%" y2="-39.29%" gradientUnits="userSpaceOnUse" id="SvgjsLinearGradient1063"><stop stop-color="#0e2a47" offset="0"></stop><stop stop-color="rgba(121, 160, 211, 1)" offset="1"></stop></linearGradient><style>
                @keyframes float1 {
                    0%{transform: translate(0, 0)}
                    50%{transform: translate(-10px, 0)}
                    100%{transform: translate(0, 0)}
                }

                .triangle-float1 {
                    animation: float1 5s infinite;
                }

                @keyframes float2 {
                    0%{transform: translate(0, 0)}
                    50%{transform: translate(-5px, -5px)}
                    100%{transform: translate(0, 0)}
                }

                .triangle-float2 {
                    animation: float2 4s infinite;
                }

                @keyframes float3 {
                    0%{transform: translate(0, 0)}
                    50%{transform: translate(0, -10px)}
                    100%{transform: translate(0, 0)}
                }

                .triangle-float3 {
                    animation: float3 6s infinite;
                }
            </style></defs></svg>