<svg xmlns="http://www.w3.org/2000/svg" version="1.1" xmlns:xlink="http://www.w3.org/1999/xlink" xmlns:svgjs="http://svgjs.dev/svgjs" width="1440" height="700" preserveAspectRatio="none" viewBox="0 0 1440 700"><g mask="url(&quot;#SvgjsMask1011&quot;)" fill="none"><rect width="1440" height="700" x="0" y="0" fill="url(&quot;#SvgjsLinearGradient1012&quot;)"></rect><path d="M65.12 295.74L130.08 333.24L130.08 408.24L65.12 445.74L0.17 408.24L0.17 333.24zM65.12 520.74L130.08 558.24L130.08 633.24L65.12 670.74L0.17 633.24L0.17 558.24zM0.17 633.24L65.12 670.74L65.12 745.74L0.17 783.24L-64.78 745.74L-64.78 670.74zM130.08 183.24L195.03 220.74L195.03 295.74L130.08 333.24L65.12 295.74L65.12 220.74zM195.03 295.74L259.99 333.24L259.99 408.24L195.03 445.74L130.08 408.24L130.08 333.24zM130.08 408.24L195.03 445.74L195.03 520.74L130.08 558.24L65.12 520.74L65.12 445.74zM324.94 70.74L389.89 108.24L389.89 183.24L324.94 220.74L259.99 183.24L259.99 108.24zM259.99 183.24L324.94 220.74L324.94 295.74L259.99 333.24L195.03 295.74L195.03 220.74zM454.85 70.74L519.8 108.24L519.8 183.24L454.85 220.74L389.89 183.24L389.89 108.24zM454.85 295.74L519.8 333.24L519.8 408.24L454.85 445.74L389.89 408.24L389.89 333.24zM454.85 520.74L519.8 558.24L519.8 633.24L454.85 670.74L389.89 633.24L389.89 558.24zM389.89 633.24L454.85 670.74L454.85 745.74L389.89 783.24L324.94 745.74L324.94 670.74zM519.8 -41.76L584.75 -4.26L584.75 70.74L519.8 108.24L454.85 70.74L454.85 -4.26zM519.8 183.24L584.75 220.74L584.75 295.74L519.8 333.24L454.85 295.74L454.85 220.74zM519.8 408.24L584.75 445.74L584.75 520.74L519.8 558.24L454.85 520.74L454.85 445.74zM714.66 70.74L779.62 108.24L779.62 183.24L714.66 220.74L649.71 183.24L649.71 108.24zM649.71 183.24L714.66 220.74L714.66 295.74L649.71 333.24L584.75 295.74L584.75 220.74zM649.71 408.24L714.66 445.74L714.66 520.74L649.71 558.24L584.75 520.74L584.75 445.74zM714.66 520.74L779.62 558.24L779.62 633.24L714.66 670.74L649.71 633.24L649.71 558.24zM844.57 295.74L909.52 333.24L909.52 408.24L844.57 445.74L779.61 408.24L779.61 333.24zM779.61 408.24L844.57 445.74L844.57 520.74L779.61 558.24L714.66 520.74L714.66 445.74zM909.52 -41.76L974.48 -4.26L974.48 70.74L909.52 108.24L844.57 70.74L844.57 -4.26zM974.48 295.74L1039.43 333.24L1039.43 408.24L974.48 445.74L909.52 408.24L909.52 333.24zM974.48 520.74L1039.43 558.24L1039.43 633.24L974.48 670.74L909.52 633.24L909.52 558.24zM1039.43 -41.76L1104.38 -4.26L1104.38 70.74L1039.43 108.24L974.48 70.74L974.48 -4.26zM1104.38 70.74L1169.34 108.24L1169.34 183.24L1104.38 220.74L1039.43 183.24L1039.43 108.24zM1039.43 183.24L1104.38 220.74L1104.38 295.74L1039.43 333.24L974.48 295.74L974.48 220.74zM1104.38 295.74L1169.34 333.24L1169.34 408.24L1104.38 445.74L1039.43 408.24L1039.43 333.24zM1169.34 -41.76L1234.29 -4.26L1234.29 70.74L1169.34 108.24L1104.38 70.74L1104.38 -4.26zM1234.29 70.74L1299.24 108.24L1299.24 183.24L1234.29 220.74L1169.34 183.24L1169.34 108.24zM1234.29 295.74L1299.24 333.24L1299.24 408.24L1234.29 445.74L1169.34 408.24L1169.34 333.24zM1169.34 408.24L1234.29 445.74L1234.29 520.74L1169.34 558.24L1104.38 520.74L1104.38 445.74zM1234.29 520.74L1299.24 558.24L1299.24 633.24L1234.29 670.74L1169.34 633.24L1169.34 558.24zM1169.34 633.24L1234.29 670.74L1234.29 745.74L1169.34 783.24L1104.38 745.74L1104.38 670.74zM1299.25 183.24L1364.2 220.74L1364.2 295.74L1299.25 333.24L1234.29 295.74L1234.29 220.74zM1364.2 520.74L1429.15 558.24L1429.15 633.24L1364.2 670.74L1299.25 633.24L1299.25 558.24zM1299.25 633.24L1364.2 670.74L1364.2 745.74L1299.25 783.24L1234.29 745.74L1234.29 670.74zM1429.15 183.24L1494.11 220.74L1494.11 295.74L1429.15 333.24L1364.2 295.74L1364.2 220.74zM1494.11 295.74L1559.06 333.24L1559.06 408.24L1494.11 445.74L1429.15 408.24L1429.15 333.24zM1429.15 408.24L1494.11 445.74L1494.11 520.74L1429.15 558.24L1364.2 520.74L1364.2 445.74zM1494.11 520.74L1559.06 558.24L1559.06 633.24L1494.11 670.74L1429.15 633.24L1429.15 558.24zM1429.15 633.24L1494.11 670.74L1494.11 745.74L1429.15 783.24L1364.2 745.74L1364.2 670.74z" stroke="#03305d" stroke-width="2"></path><path d="M57.62 295.74 a7.5 7.5 0 1 0 15 0 a7.5 7.5 0 1 0 -15 0zM122.58 333.24 a7.5 7.5 0 1 0 15 0 a7.5 7.5 0 1 0 -15 0zM122.58 408.24 a7.5 7.5 0 1 0 15 0 a7.5 7.5 0 1 0 -15 0zM57.62 445.74 a7.5 7.5 0 1 0 15 0 a7.5 7.5 0 1 0 -15 0zM-7.33 408.24 a7.5 7.5 0 1 0 15 0 a7.5 7.5 0 1 0 -15 0zM-7.33 333.24 a7.5 7.5 0 1 0 15 0 a7.5 7.5 0 1 0 -15 0zM57.62 520.74 a7.5 7.5 0 1 0 15 0 a7.5 7.5 0 1 0 -15 0zM122.58 558.24 a7.5 7.5 0 1 0 15 0 a7.5 7.5 0 1 0 -15 0zM122.58 633.24 a7.5 7.5 0 1 0 15 0 a7.5 7.5 0 1 0 -15 0zM57.62 670.74 a7.5 7.5 0 1 0 15 0 a7.5 7.5 0 1 0 -15 0zM-7.33 633.24 a7.5 7.5 0 1 0 15 0 a7.5 7.5 0 1 0 -15 0zM-7.33 558.24 a7.5 7.5 0 1 0 15 0 a7.5 7.5 0 1 0 -15 0zM57.62 745.74 a7.5 7.5 0 1 0 15 0 a7.5 7.5 0 1 0 -15 0zM-7.33 783.24 a7.5 7.5 0 1 0 15 0 a7.5 7.5 0 1 0 -15 0zM-72.28 745.74 a7.5 7.5 0 1 0 15 0 a7.5 7.5 0 1 0 -15 0zM-72.28 670.74 a7.5 7.5 0 1 0 15 0 a7.5 7.5 0 1 0 -15 0zM122.58 183.24 a7.5 7.5 0 1 0 15 0 a7.5 7.5 0 1 0 -15 0zM187.53 220.74 a7.5 7.5 0 1 0 15 0 a7.5 7.5 0 1 0 -15 0zM187.53 295.74 a7.5 7.5 0 1 0 15 0 a7.5 7.5 0 1 0 -15 0zM57.62 220.74 a7.5 7.5 0 1 0 15 0 a7.5 7.5 0 1 0 -15 0zM252.49 333.24 a7.5 7.5 0 1 0 15 0 a7.5 7.5 0 1 0 -15 0zM252.49 408.24 a7.5 7.5 0 1 0 15 0 a7.5 7.5 0 1 0 -15 0zM187.53 445.74 a7.5 7.5 0 1 0 15 0 a7.5 7.5 0 1 0 -15 0zM187.53 520.74 a7.5 7.5 0 1 0 15 0 a7.5 7.5 0 1 0 -15 0zM317.44 70.74 a7.5 7.5 0 1 0 15 0 a7.5 7.5 0 1 0 -15 0zM382.39 108.24 a7.5 7.5 0 1 0 15 0 a7.5 7.5 0 1 0 -15 0zM382.39 183.24 a7.5 7.5 0 1 0 15 0 a7.5 7.5 0 1 0 -15 0zM317.44 220.74 a7.5 7.5 0 1 0 15 0 a7.5 7.5 0 1 0 -15 0zM252.49 183.24 a7.5 7.5 0 1 0 15 0 a7.5 7.5 0 1 0 -15 0zM252.49 108.24 a7.5 7.5 0 1 0 15 0 a7.5 7.5 0 1 0 -15 0zM317.44 295.74 a7.5 7.5 0 1 0 15 0 a7.5 7.5 0 1 0 -15 0zM447.35 70.74 a7.5 7.5 0 1 0 15 0 a7.5 7.5 0 1 0 -15 0zM512.3 108.24 a7.5 7.5 0 1 0 15 0 a7.5 7.5 0 1 0 -15 0zM512.3 183.24 a7.5 7.5 0 1 0 15 0 a7.5 7.5 0 1 0 -15 0zM447.35 220.74 a7.5 7.5 0 1 0 15 0 a7.5 7.5 0 1 0 -15 0zM447.35 295.74 a7.5 7.5 0 1 0 15 0 a7.5 7.5 0 1 0 -15 0zM512.3 333.24 a7.5 7.5 0 1 0 15 0 a7.5 7.5 0 1 0 -15 0zM512.3 408.24 a7.5 7.5 0 1 0 15 0 a7.5 7.5 0 1 0 -15 0zM447.35 445.74 a7.5 7.5 0 1 0 15 0 a7.5 7.5 0 1 0 -15 0zM382.39 408.24 a7.5 7.5 0 1 0 15 0 a7.5 7.5 0 1 0 -15 0zM382.39 333.24 a7.5 7.5 0 1 0 15 0 a7.5 7.5 0 1 0 -15 0zM447.35 520.74 a7.5 7.5 0 1 0 15 0 a7.5 7.5 0 1 0 -15 0zM512.3 558.24 a7.5 7.5 0 1 0 15 0 a7.5 7.5 0 1 0 -15 0zM512.3 633.24 a7.5 7.5 0 1 0 15 0 a7.5 7.5 0 1 0 -15 0zM447.35 670.74 a7.5 7.5 0 1 0 15 0 a7.5 7.5 0 1 0 -15 0zM382.39 633.24 a7.5 7.5 0 1 0 15 0 a7.5 7.5 0 1 0 -15 0zM382.39 558.24 a7.5 7.5 0 1 0 15 0 a7.5 7.5 0 1 0 -15 0zM447.35 745.74 a7.5 7.5 0 1 0 15 0 a7.5 7.5 0 1 0 -15 0zM382.39 783.24 a7.5 7.5 0 1 0 15 0 a7.5 7.5 0 1 0 -15 0zM317.44 745.74 a7.5 7.5 0 1 0 15 0 a7.5 7.5 0 1 0 -15 0zM317.44 670.74 a7.5 7.5 0 1 0 15 0 a7.5 7.5 0 1 0 -15 0zM512.3 -41.76 a7.5 7.5 0 1 0 15 0 a7.5 7.5 0 1 0 -15 0zM577.25 -4.26 a7.5 7.5 0 1 0 15 0 a7.5 7.5 0 1 0 -15 0zM577.25 70.74 a7.5 7.5 0 1 0 15 0 a7.5 7.5 0 1 0 -15 0zM447.35 -4.26 a7.5 7.5 0 1 0 15 0 a7.5 7.5 0 1 0 -15 0zM577.25 220.74 a7.5 7.5 0 1 0 15 0 a7.5 7.5 0 1 0 -15 0zM577.25 295.74 a7.5 7.5 0 1 0 15 0 a7.5 7.5 0 1 0 -15 0zM577.25 445.74 a7.5 7.5 0 1 0 15 0 a7.5 7.5 0 1 0 -15 0zM577.25 520.74 a7.5 7.5 0 1 0 15 0 a7.5 7.5 0 1 0 -15 0zM707.16 70.74 a7.5 7.5 0 1 0 15 0 a7.5 7.5 0 1 0 -15 0zM772.12 108.24 a7.5 7.5 0 1 0 15 0 a7.5 7.5 0 1 0 -15 0zM772.12 183.24 a7.5 7.5 0 1 0 15 0 a7.5 7.5 0 1 0 -15 0zM707.16 220.74 a7.5 7.5 0 1 0 15 0 a7.5 7.5 0 1 0 -15 0zM642.21 183.24 a7.5 7.5 0 1 0 15 0 a7.5 7.5 0 1 0 -15 0zM642.21 108.24 a7.5 7.5 0 1 0 15 0 a7.5 7.5 0 1 0 -15 0zM707.16 295.74 a7.5 7.5 0 1 0 15 0 a7.5 7.5 0 1 0 -15 0zM642.21 333.24 a7.5 7.5 0 1 0 15 0 a7.5 7.5 0 1 0 -15 0zM642.21 408.24 a7.5 7.5 0 1 0 15 0 a7.5 7.5 0 1 0 -15 0zM707.16 445.74 a7.5 7.5 0 1 0 15 0 a7.5 7.5 0 1 0 -15 0zM707.16 520.74 a7.5 7.5 0 1 0 15 0 a7.5 7.5 0 1 0 -15 0zM642.21 558.24 a7.5 7.5 0 1 0 15 0 a7.5 7.5 0 1 0 -15 0zM772.12 558.24 a7.5 7.5 0 1 0 15 0 a7.5 7.5 0 1 0 -15 0zM772.12 633.24 a7.5 7.5 0 1 0 15 0 a7.5 7.5 0 1 0 -15 0zM707.16 670.74 a7.5 7.5 0 1 0 15 0 a7.5 7.5 0 1 0 -15 0zM642.21 633.24 a7.5 7.5 0 1 0 15 0 a7.5 7.5 0 1 0 -15 0zM837.07 295.74 a7.5 7.5 0 1 0 15 0 a7.5 7.5 0 1 0 -15 0zM902.02 333.24 a7.5 7.5 0 1 0 15 0 a7.5 7.5 0 1 0 -15 0zM902.02 408.24 a7.5 7.5 0 1 0 15 0 a7.5 7.5 0 1 0 -15 0zM837.07 445.74 a7.5 7.5 0 1 0 15 0 a7.5 7.5 0 1 0 -15 0zM772.11 408.24 a7.5 7.5 0 1 0 15 0 a7.5 7.5 0 1 0 -15 0zM772.11 333.24 a7.5 7.5 0 1 0 15 0 a7.5 7.5 0 1 0 -15 0zM837.07 520.74 a7.5 7.5 0 1 0 15 0 a7.5 7.5 0 1 0 -15 0zM772.11 558.24 a7.5 7.5 0 1 0 15 0 a7.5 7.5 0 1 0 -15 0zM902.02 -41.76 a7.5 7.5 0 1 0 15 0 a7.5 7.5 0 1 0 -15 0zM966.98 -4.26 a7.5 7.5 0 1 0 15 0 a7.5 7.5 0 1 0 -15 0zM966.98 70.74 a7.5 7.5 0 1 0 15 0 a7.5 7.5 0 1 0 -15 0zM902.02 108.24 a7.5 7.5 0 1 0 15 0 a7.5 7.5 0 1 0 -15 0zM837.07 70.74 a7.5 7.5 0 1 0 15 0 a7.5 7.5 0 1 0 -15 0zM837.07 -4.26 a7.5 7.5 0 1 0 15 0 a7.5 7.5 0 1 0 -15 0zM966.98 295.74 a7.5 7.5 0 1 0 15 0 a7.5 7.5 0 1 0 -15 0zM1031.93 333.24 a7.5 7.5 0 1 0 15 0 a7.5 7.5 0 1 0 -15 0zM1031.93 408.24 a7.5 7.5 0 1 0 15 0 a7.5 7.5 0 1 0 -15 0zM966.98 445.74 a7.5 7.5 0 1 0 15 0 a7.5 7.5 0 1 0 -15 0zM966.98 520.74 a7.5 7.5 0 1 0 15 0 a7.5 7.5 0 1 0 -15 0zM1031.93 558.24 a7.5 7.5 0 1 0 15 0 a7.5 7.5 0 1 0 -15 0zM1031.93 633.24 a7.5 7.5 0 1 0 15 0 a7.5 7.5 0 1 0 -15 0zM966.98 670.74 a7.5 7.5 0 1 0 15 0 a7.5 7.5 0 1 0 -15 0zM902.02 633.24 a7.5 7.5 0 1 0 15 0 a7.5 7.5 0 1 0 -15 0zM902.02 558.24 a7.5 7.5 0 1 0 15 0 a7.5 7.5 0 1 0 -15 0zM1031.93 -41.76 a7.5 7.5 0 1 0 15 0 a7.5 7.5 0 1 0 -15 0zM1096.88 -4.26 a7.5 7.5 0 1 0 15 0 a7.5 7.5 0 1 0 -15 0zM1096.88 70.74 a7.5 7.5 0 1 0 15 0 a7.5 7.5 0 1 0 -15 0zM1031.93 108.24 a7.5 7.5 0 1 0 15 0 a7.5 7.5 0 1 0 -15 0zM1161.84 108.24 a7.5 7.5 0 1 0 15 0 a7.5 7.5 0 1 0 -15 0zM1161.84 183.24 a7.5 7.5 0 1 0 15 0 a7.5 7.5 0 1 0 -15 0zM1096.88 220.74 a7.5 7.5 0 1 0 15 0 a7.5 7.5 0 1 0 -15 0zM1031.93 183.24 a7.5 7.5 0 1 0 15 0 a7.5 7.5 0 1 0 -15 0zM1096.88 295.74 a7.5 7.5 0 1 0 15 0 a7.5 7.5 0 1 0 -15 0zM966.98 220.74 a7.5 7.5 0 1 0 15 0 a7.5 7.5 0 1 0 -15 0zM1161.84 333.24 a7.5 7.5 0 1 0 15 0 a7.5 7.5 0 1 0 -15 0zM1161.84 408.24 a7.5 7.5 0 1 0 15 0 a7.5 7.5 0 1 0 -15 0zM1096.88 445.74 a7.5 7.5 0 1 0 15 0 a7.5 7.5 0 1 0 -15 0zM1161.84 -41.76 a7.5 7.5 0 1 0 15 0 a7.5 7.5 0 1 0 -15 0zM1226.79 -4.26 a7.5 7.5 0 1 0 15 0 a7.5 7.5 0 1 0 -15 0zM1226.79 70.74 a7.5 7.5 0 1 0 15 0 a7.5 7.5 0 1 0 -15 0zM1291.74 108.24 a7.5 7.5 0 1 0 15 0 a7.5 7.5 0 1 0 -15 0zM1291.74 183.24 a7.5 7.5 0 1 0 15 0 a7.5 7.5 0 1 0 -15 0zM1226.79 220.74 a7.5 7.5 0 1 0 15 0 a7.5 7.5 0 1 0 -15 0zM1226.79 295.74 a7.5 7.5 0 1 0 15 0 a7.5 7.5 0 1 0 -15 0zM1291.74 333.24 a7.5 7.5 0 1 0 15 0 a7.5 7.5 0 1 0 -15 0zM1291.74 408.24 a7.5 7.5 0 1 0 15 0 a7.5 7.5 0 1 0 -15 0zM1226.79 445.74 a7.5 7.5 0 1 0 15 0 a7.5 7.5 0 1 0 -15 0zM1226.79 520.74 a7.5 7.5 0 1 0 15 0 a7.5 7.5 0 1 0 -15 0zM1161.84 558.24 a7.5 7.5 0 1 0 15 0 a7.5 7.5 0 1 0 -15 0zM1096.88 520.74 a7.5 7.5 0 1 0 15 0 a7.5 7.5 0 1 0 -15 0zM1291.74 558.24 a7.5 7.5 0 1 0 15 0 a7.5 7.5 0 1 0 -15 0zM1291.74 633.24 a7.5 7.5 0 1 0 15 0 a7.5 7.5 0 1 0 -15 0zM1226.79 670.74 a7.5 7.5 0 1 0 15 0 a7.5 7.5 0 1 0 -15 0zM1161.84 633.24 a7.5 7.5 0 1 0 15 0 a7.5 7.5 0 1 0 -15 0zM1226.79 745.74 a7.5 7.5 0 1 0 15 0 a7.5 7.5 0 1 0 -15 0zM1161.84 783.24 a7.5 7.5 0 1 0 15 0 a7.5 7.5 0 1 0 -15 0zM1096.88 745.74 a7.5 7.5 0 1 0 15 0 a7.5 7.5 0 1 0 -15 0zM1096.88 670.74 a7.5 7.5 0 1 0 15 0 a7.5 7.5 0 1 0 -15 0zM1291.75 183.24 a7.5 7.5 0 1 0 15 0 a7.5 7.5 0 1 0 -15 0zM1356.7 220.74 a7.5 7.5 0 1 0 15 0 a7.5 7.5 0 1 0 -15 0zM1356.7 295.74 a7.5 7.5 0 1 0 15 0 a7.5 7.5 0 1 0 -15 0zM1291.75 333.24 a7.5 7.5 0 1 0 15 0 a7.5 7.5 0 1 0 -15 0zM1356.7 520.74 a7.5 7.5 0 1 0 15 0 a7.5 7.5 0 1 0 -15 0zM1421.65 558.24 a7.5 7.5 0 1 0 15 0 a7.5 7.5 0 1 0 -15 0zM1421.65 633.24 a7.5 7.5 0 1 0 15 0 a7.5 7.5 0 1 0 -15 0zM1356.7 670.74 a7.5 7.5 0 1 0 15 0 a7.5 7.5 0 1 0 -15 0zM1291.75 633.24 a7.5 7.5 0 1 0 15 0 a7.5 7.5 0 1 0 -15 0zM1291.75 558.24 a7.5 7.5 0 1 0 15 0 a7.5 7.5 0 1 0 -15 0zM1356.7 745.74 a7.5 7.5 0 1 0 15 0 a7.5 7.5 0 1 0 -15 0zM1291.75 783.24 a7.5 7.5 0 1 0 15 0 a7.5 7.5 0 1 0 -15 0zM1421.65 183.24 a7.5 7.5 0 1 0 15 0 a7.5 7.5 0 1 0 -15 0zM1486.61 220.74 a7.5 7.5 0 1 0 15 0 a7.5 7.5 0 1 0 -15 0zM1486.61 295.74 a7.5 7.5 0 1 0 15 0 a7.5 7.5 0 1 0 -15 0zM1421.65 333.24 a7.5 7.5 0 1 0 15 0 a7.5 7.5 0 1 0 -15 0zM1551.56 333.24 a7.5 7.5 0 1 0 15 0 a7.5 7.5 0 1 0 -15 0zM1551.56 408.24 a7.5 7.5 0 1 0 15 0 a7.5 7.5 0 1 0 -15 0zM1486.61 445.74 a7.5 7.5 0 1 0 15 0 a7.5 7.5 0 1 0 -15 0zM1421.65 408.24 a7.5 7.5 0 1 0 15 0 a7.5 7.5 0 1 0 -15 0zM1486.61 520.74 a7.5 7.5 0 1 0 15 0 a7.5 7.5 0 1 0 -15 0zM1356.7 445.74 a7.5 7.5 0 1 0 15 0 a7.5 7.5 0 1 0 -15 0zM1551.56 558.24 a7.5 7.5 0 1 0 15 0 a7.5 7.5 0 1 0 -15 0zM1551.56 633.24 a7.5 7.5 0 1 0 15 0 a7.5 7.5 0 1 0 -15 0zM1486.61 670.74 a7.5 7.5 0 1 0 15 0 a7.5 7.5 0 1 0 -15 0zM1486.61 745.74 a7.5 7.5 0 1 0 15 0 a7.5 7.5 0 1 0 -15 0zM1421.65 783.24 a7.5 7.5 0 1 0 15 0 a7.5 7.5 0 1 0 -15 0z" fill="#03305d"></path><path d="M24.8 -19.07L68.1 5.93L68.1 55.93L24.8 80.93L-18.5 55.93L-18.5 5.93zM24.8 280.93L68.1 305.93L68.1 355.93L24.8 380.93L-18.5 355.93L-18.5 305.93zM24.8 430.93L68.1 455.93L68.1 505.93L24.8 530.93L-18.5 505.93L-18.5 455.93zM68.1 655.93L111.41 680.93L111.41 730.93L68.1 755.93L24.8 730.93L24.8 680.93zM111.41 -19.07L154.71 5.93L154.71 55.93L111.41 80.93L68.1 55.93L68.1 5.93zM111.41 130.93L154.71 155.93L154.71 205.93L111.41 230.93L68.1 205.93L68.1 155.93zM111.41 280.93L154.71 305.93L154.71 355.93L111.41 380.93L68.1 355.93L68.1 305.93zM154.71 655.93L198.01 680.93L198.01 730.93L154.71 755.93L111.41 730.93L111.41 680.93zM198.01 -19.07L241.31 5.93L241.31 55.93L198.01 80.93L154.71 55.93L154.71 5.93zM241.31 205.93L284.62 230.93L284.62 280.93L241.31 305.93L198.01 280.93L198.01 230.93zM241.31 355.93L284.62 380.93L284.62 430.93L241.31 455.93L198.01 430.93L198.01 380.93zM198.01 430.93L241.31 455.93L241.31 505.93L198.01 530.93L154.71 505.93L154.71 455.93zM198.01 580.93L241.31 605.93L241.31 655.93L198.01 680.93L154.71 655.93L154.71 605.93zM284.62 -19.07L327.92 5.93L327.92 55.93L284.62 80.93L241.31 55.93L241.31 5.93zM284.62 280.93L327.92 305.93L327.92 355.93L284.62 380.93L241.31 355.93L241.31 305.93zM284.62 580.93L327.92 605.93L327.92 655.93L284.62 680.93L241.31 655.93L241.31 605.93zM327.92 655.93L371.22 680.93L371.22 730.93L327.92 755.93L284.62 730.93L284.62 680.93zM371.22 -19.07L414.52 5.93L414.52 55.93L371.22 80.93L327.92 55.93L327.92 5.93zM371.22 130.93L414.52 155.93L414.52 205.93L371.22 230.93L327.92 205.93L327.92 155.93zM371.22 280.93L414.52 305.93L414.52 355.93L371.22 380.93L327.92 355.93L327.92 305.93zM371.22 430.93L414.52 455.93L414.52 505.93L371.22 530.93L327.92 505.93L327.92 455.93zM371.22 580.93L414.52 605.93L414.52 655.93L371.22 680.93L327.92 655.93L327.92 605.93zM501.13 55.93L544.43 80.93L544.43 130.93L501.13 155.93L457.83 130.93L457.83 80.93zM457.83 130.93L501.13 155.93L501.13 205.93L457.83 230.93L414.52 205.93L414.52 155.93zM457.83 280.93L501.13 305.93L501.13 355.93L457.83 380.93L414.52 355.93L414.52 305.93zM501.13 355.93L544.43 380.93L544.43 430.93L501.13 455.93L457.83 430.93L457.83 380.93zM501.13 505.93L544.43 530.93L544.43 580.93L501.13 605.93L457.83 580.93L457.83 530.93zM501.13 655.93L544.43 680.93L544.43 730.93L501.13 755.93L457.83 730.93L457.83 680.93zM587.73 55.93L631.03 80.93L631.03 130.93L587.73 155.93L544.43 130.93L544.43 80.93zM587.73 355.93L631.03 380.93L631.03 430.93L587.73 455.93L544.43 430.93L544.43 380.93zM631.03 130.93L674.34 155.93L674.34 205.93L631.03 230.93L587.73 205.93L587.73 155.93zM717.64 130.93L760.94 155.93L760.94 205.93L717.64 230.93L674.34 205.93L674.34 155.93zM717.64 580.93L760.94 605.93L760.94 655.93L717.64 680.93L674.34 655.93L674.34 605.93zM760.94 655.93L804.25 680.93L804.25 730.93L760.94 755.93L717.64 730.93L717.64 680.93zM804.25 -19.07L847.55 5.93L847.55 55.93L804.25 80.93L760.94 55.93L760.94 5.93zM804.25 130.93L847.55 155.93L847.55 205.93L804.25 230.93L760.94 205.93L760.94 155.93zM847.55 205.93L890.85 230.93L890.85 280.93L847.55 305.93L804.25 280.93L804.25 230.93zM847.55 355.93L890.85 380.93L890.85 430.93L847.55 455.93L804.25 430.93L804.25 380.93zM890.85 -19.07L934.15 5.93L934.15 55.93L890.85 80.93L847.55 55.93L847.55 5.93zM934.15 55.93L977.46 80.93L977.46 130.93L934.15 155.93L890.85 130.93L890.85 80.93zM934.15 205.93L977.46 230.93L977.46 280.93L934.15 305.93L890.85 280.93L890.85 230.93zM890.85 280.93L934.15 305.93L934.15 355.93L890.85 380.93L847.55 355.93L847.55 305.93zM934.15 355.93L977.46 380.93L977.46 430.93L934.15 455.93L890.85 430.93L890.85 380.93zM934.15 655.93L977.46 680.93L977.46 730.93L934.15 755.93L890.85 730.93L890.85 680.93zM1020.76 55.93L1064.06 80.93L1064.06 130.93L1020.76 155.93L977.46 130.93L977.46 80.93zM1020.76 205.93L1064.06 230.93L1064.06 280.93L1020.76 305.93L977.46 280.93L977.46 230.93zM977.46 280.93L1020.76 305.93L1020.76 355.93L977.46 380.93L934.15 355.93L934.15 305.93zM1020.76 355.93L1064.06 380.93L1064.06 430.93L1020.76 455.93L977.46 430.93L977.46 380.93zM1020.76 505.93L1064.06 530.93L1064.06 580.93L1020.76 605.93L977.46 580.93L977.46 530.93zM977.46 580.93L1020.76 605.93L1020.76 655.93L977.46 680.93L934.15 655.93L934.15 605.93zM1064.06 -19.07L1107.36 5.93L1107.36 55.93L1064.06 80.93L1020.76 55.93L1020.76 5.93zM1064.06 130.93L1107.36 155.93L1107.36 205.93L1064.06 230.93L1020.76 205.93L1020.76 155.93zM1107.36 205.93L1150.66 230.93L1150.66 280.93L1107.36 305.93L1064.06 280.93L1064.06 230.93zM1064.06 430.93L1107.36 455.93L1107.36 505.93L1064.06 530.93L1020.76 505.93L1020.76 455.93zM1107.36 505.93L1150.66 530.93L1150.66 580.93L1107.36 605.93L1064.06 580.93L1064.06 530.93zM1064.06 580.93L1107.36 605.93L1107.36 655.93L1064.06 680.93L1020.76 655.93L1020.76 605.93zM1193.97 55.93L1237.27 80.93L1237.27 130.93L1193.97 155.93L1150.66 130.93L1150.66 80.93zM1193.97 355.93L1237.27 380.93L1237.27 430.93L1193.97 455.93L1150.66 430.93L1150.66 380.93zM1150.66 580.93L1193.97 605.93L1193.97 655.93L1150.66 680.93L1107.36 655.93L1107.36 605.93zM1193.97 655.93L1237.27 680.93L1237.27 730.93L1193.97 755.93L1150.66 730.93L1150.66 680.93zM1237.27 -19.07L1280.57 5.93L1280.57 55.93L1237.27 80.93L1193.97 55.93L1193.97 5.93zM1280.57 55.93L1323.88 80.93L1323.88 130.93L1280.57 155.93L1237.27 130.93L1237.27 80.93zM1280.57 355.93L1323.88 380.93L1323.88 430.93L1280.57 455.93L1237.27 430.93L1237.27 380.93zM1237.27 430.93L1280.57 455.93L1280.57 505.93L1237.27 530.93L1193.97 505.93L1193.97 455.93zM1280.57 505.93L1323.88 530.93L1323.88 580.93L1280.57 605.93L1237.27 580.93L1237.27 530.93zM1237.27 580.93L1280.57 605.93L1280.57 655.93L1237.27 680.93L1193.97 655.93L1193.97 605.93zM1323.88 130.93L1367.18 155.93L1367.18 205.93L1323.88 230.93L1280.57 205.93L1280.57 155.93zM1367.18 205.93L1410.48 230.93L1410.48 280.93L1367.18 305.93L1323.88 280.93L1323.88 230.93zM1323.88 280.93L1367.18 305.93L1367.18 355.93L1323.88 380.93L1280.57 355.93L1280.57 305.93zM1453.78 205.93L1497.09 230.93L1497.09 280.93L1453.78 305.93L1410.48 280.93L1410.48 230.93zM1410.48 430.93L1453.78 455.93L1453.78 505.93L1410.48 530.93L1367.18 505.93L1367.18 455.93zM1453.78 655.93L1497.09 680.93L1497.09 730.93L1453.78 755.93L1410.48 730.93L1410.48 680.93z" stroke="rgba(6, 80, 156, 0.93)" stroke-width="2"></path></g><defs><mask id="SvgjsMask1011"><rect width="1440" height="700" fill="#ffffff"></rect></mask><linearGradient x1="12.85%" y1="-26.43%" x2="87.15%" y2="126.43%" gradientUnits="userSpaceOnUse" id="SvgjsLinearGradient1012"><stop stop-color="#0e2a47" offset="0"></stop><stop stop-color="#00459e" offset="1"></stop></linearGradient></defs></svg>