<svg xmlns="http://www.w3.org/2000/svg" version="1.1" xmlns:xlink="http://www.w3.org/1999/xlink" xmlns:svgjs="http://svgjs.dev/svgjs" width="900" height="560" preserveAspectRatio="none" viewBox="0 0 900 560"><g mask="url(&quot;#SvgjsMask1957&quot;)" fill="none"><rect width="900" height="560" x="0" y="0" fill="url(&quot;#SvgjsLinearGradient1958&quot;)"></rect><path d="M-37.73 529.32L-37.73 529.32" stroke="rgba(14, 24, 94, 1)" stroke-width="1.5"></path><path d="M-37.73 529.32L-57.49 598.71" stroke="rgba(14, 24, 94, 1)" stroke-width="1.5"></path><path d="M-37.73 529.32L70.56 526.76" stroke="rgba(14, 24, 94, 1)" stroke-width="1.5"></path><path d="M-37.73 529.32L47.13 603.13" stroke="rgba(14, 24, 94, 1)" stroke-width="1.5"></path><path d="M-37.73 529.32L75.98 397.38" stroke="rgba(14, 24, 94, 1)" stroke-width="1.5"></path><path d="M-37.73 529.32L147.97 480.16" stroke="rgba(14, 24, 94, 1)" stroke-width="1.5"></path><path d="M-37.73 529.32L164.22 591.13" stroke="rgba(14, 24, 94, 1)" stroke-width="1.5"></path><path d="M-57.49 598.71L-57.49 598.71" stroke="rgba(14, 24, 94, 1)" stroke-width="1.5"></path><path d="M-57.49 598.71L47.13 603.13" stroke="rgba(14, 24, 94, 1)" stroke-width="1.5"></path><path d="M-57.49 598.71L70.56 526.76" stroke="rgba(14, 24, 94, 1)" stroke-width="1.5"></path><path d="M-57.49 598.71L164.22 591.13" stroke="rgba(14, 24, 94, 1)" stroke-width="1.5"></path><path d="M-57.49 598.71L147.97 480.16" stroke="rgba(14, 24, 94, 1)" stroke-width="1.5"></path><path d="M75.98 397.38L75.98 397.38" stroke="rgba(14, 24, 94, 1)" stroke-width="1.5"></path><path d="M75.98 397.38L147.97 480.16" stroke="rgba(14, 24, 94, 1)" stroke-width="1.5"></path><path d="M75.98 397.38L189.08 411.62" stroke="rgba(14, 24, 94, 1)" stroke-width="1.5"></path><path d="M75.98 397.38L70.56 526.76" stroke="rgba(14, 24, 94, 1)" stroke-width="1.5"></path><path d="M75.98 397.38L47.13 603.13" stroke="rgba(14, 24, 94, 1)" stroke-width="1.5"></path><path d="M75.98 397.38L164.22 591.13" stroke="rgba(14, 24, 94, 1)" stroke-width="1.5"></path><path d="M70.56 526.76L70.56 526.76" stroke="rgba(14, 24, 94, 1)" stroke-width="1.5"></path><path d="M70.56 526.76L47.13 603.13" stroke="rgba(14, 24, 94, 1)" stroke-width="1.5"></path><path d="M70.56 526.76L147.97 480.16" stroke="rgba(14, 24, 94, 1)" stroke-width="1.5"></path><path d="M70.56 526.76L164.22 591.13" stroke="rgba(14, 24, 94, 1)" stroke-width="1.5"></path><path d="M47.13 603.13L47.13 603.13" stroke="rgba(14, 24, 94, 1)" stroke-width="1.5"></path><path d="M189.08 411.62L189.08 411.62" stroke="rgba(14, 24, 94, 1)" stroke-width="1.5"></path><path d="M189.08 411.62L147.97 480.16" stroke="rgba(14, 24, 94, 1)" stroke-width="1.5"></path><path d="M189.08 411.62L298.35 381.18" stroke="rgba(14, 24, 94, 1)" stroke-width="1.5"></path><path d="M189.08 411.62L301.88 479.48" stroke="rgba(14, 24, 94, 1)" stroke-width="1.5"></path><path d="M147.97 480.16L147.97 480.16" stroke="rgba(14, 24, 94, 1)" stroke-width="1.5"></path><path d="M164.22 591.13L164.22 591.13" stroke="rgba(14, 24, 94, 1)" stroke-width="1.5"></path><path d="M164.22 591.13L147.97 480.16" stroke="rgba(14, 24, 94, 1)" stroke-width="1.5"></path><path d="M164.22 591.13L47.13 603.13" stroke="rgba(14, 24, 94, 1)" stroke-width="1.5"></path><path d="M267.85 292.5L267.85 292.5" stroke="rgba(14, 24, 94, 1)" stroke-width="1.5"></path><path d="M267.85 292.5L298.35 381.18" stroke="rgba(14, 24, 94, 1)" stroke-width="1.5"></path><path d="M267.85 292.5L189.08 411.62" stroke="rgba(14, 24, 94, 1)" stroke-width="1.5"></path><path d="M298.35 381.18L298.35 381.18" stroke="rgba(14, 24, 94, 1)" stroke-width="1.5"></path><path d="M298.35 381.18L301.88 479.48" stroke="rgba(14, 24, 94, 1)" stroke-width="1.5"></path><path d="M298.35 381.18L406.68 387.34" stroke="rgba(14, 24, 94, 1)" stroke-width="1.5"></path><path d="M301.88 479.48L301.88 479.48" stroke="rgba(14, 24, 94, 1)" stroke-width="1.5"></path><path d="M301.88 479.48L407.9 498.85" stroke="rgba(14, 24, 94, 1)" stroke-width="1.5"></path><path d="M301.88 479.48L406.68 387.34" stroke="rgba(14, 24, 94, 1)" stroke-width="1.5"></path><path d="M301.88 479.48L147.97 480.16" stroke="rgba(14, 24, 94, 1)" stroke-width="1.5"></path><path d="M409.34 255.42L409.34 255.42" stroke="rgba(14, 24, 94, 1)" stroke-width="1.5"></path><path d="M409.34 255.42L501.72 269.91" stroke="rgba(14, 24, 94, 1)" stroke-width="1.5"></path><path d="M409.34 255.42L518.39 191.52" stroke="rgba(14, 24, 94, 1)" stroke-width="1.5"></path><path d="M409.34 255.42L406.68 387.34" stroke="rgba(14, 24, 94, 1)" stroke-width="1.5"></path><path d="M406.68 387.34L406.68 387.34" stroke="rgba(14, 24, 94, 1)" stroke-width="1.5"></path><path d="M406.68 387.34L407.9 498.85" stroke="rgba(14, 24, 94, 1)" stroke-width="1.5"></path><path d="M406.68 387.34L526.87 400.65" stroke="rgba(14, 24, 94, 1)" stroke-width="1.5"></path><path d="M407.9 498.85L407.9 498.85" stroke="rgba(14, 24, 94, 1)" stroke-width="1.5"></path><path d="M407.9 498.85L501.23 534.27" stroke="rgba(14, 24, 94, 1)" stroke-width="1.5"></path><path d="M407.9 498.85L394.84 635.8" stroke="rgba(14, 24, 94, 1)" stroke-width="1.5"></path><path d="M394.84 635.8L394.84 635.8" stroke="rgba(14, 24, 94, 1)" stroke-width="1.5"></path><path d="M394.84 635.8L518.19 608.66" stroke="rgba(14, 24, 94, 1)" stroke-width="1.5"></path><path d="M394.84 635.8L501.23 534.27" stroke="rgba(14, 24, 94, 1)" stroke-width="1.5"></path><path d="M518.39 191.52L518.39 191.52" stroke="rgba(14, 24, 94, 1)" stroke-width="1.5"></path><path d="M518.39 191.52L501.72 269.91" stroke="rgba(14, 24, 94, 1)" stroke-width="1.5"></path><path d="M518.39 191.52L629.97 150.99" stroke="rgba(14, 24, 94, 1)" stroke-width="1.5"></path><path d="M518.39 191.52L526.87 400.65" stroke="rgba(14, 24, 94, 1)" stroke-width="1.5"></path><path d="M501.72 269.91L501.72 269.91" stroke="rgba(14, 24, 94, 1)" stroke-width="1.5"></path><path d="M526.87 400.65L526.87 400.65" stroke="rgba(14, 24, 94, 1)" stroke-width="1.5"></path><path d="M526.87 400.65L635.62 389" stroke="rgba(14, 24, 94, 1)" stroke-width="1.5"></path><path d="M501.23 534.27L501.23 534.27" stroke="rgba(14, 24, 94, 1)" stroke-width="1.5"></path><path d="M501.23 534.27L518.19 608.66" stroke="rgba(14, 24, 94, 1)" stroke-width="1.5"></path><path d="M501.23 534.27L622.15 503.08" stroke="rgba(14, 24, 94, 1)" stroke-width="1.5"></path><path d="M501.23 534.27L526.87 400.65" stroke="rgba(14, 24, 94, 1)" stroke-width="1.5"></path><path d="M518.19 608.66L518.19 608.66" stroke="rgba(14, 24, 94, 1)" stroke-width="1.5"></path><path d="M518.19 608.66L622.15 503.08" stroke="rgba(14, 24, 94, 1)" stroke-width="1.5"></path><path d="M518.19 608.66L407.9 498.85" stroke="rgba(14, 24, 94, 1)" stroke-width="1.5"></path><path d="M518.19 608.66L526.87 400.65" stroke="rgba(14, 24, 94, 1)" stroke-width="1.5"></path><path d="M625.54 -57.89L625.54 -57.89" stroke="rgba(14, 24, 94, 1)" stroke-width="1.5"></path><path d="M625.54 -57.89L706.69 -64.58" stroke="rgba(14, 24, 94, 1)" stroke-width="1.5"></path><path d="M625.54 -57.89L758.63 73.56" stroke="rgba(14, 24, 94, 1)" stroke-width="1.5"></path><path d="M625.54 -57.89L629.97 150.99" stroke="rgba(14, 24, 94, 1)" stroke-width="1.5"></path><path d="M625.54 -57.89L844.36 -60.01" stroke="rgba(14, 24, 94, 1)" stroke-width="1.5"></path><path d="M625.54 -57.89L740.8 154.9" stroke="rgba(14, 24, 94, 1)" stroke-width="1.5"></path><path d="M625.54 -57.89L845.05 75.13" stroke="rgba(14, 24, 94, 1)" stroke-width="1.5"></path><path d="M629.97 150.99L629.97 150.99" stroke="rgba(14, 24, 94, 1)" stroke-width="1.5"></path><path d="M629.97 150.99L740.8 154.9" stroke="rgba(14, 24, 94, 1)" stroke-width="1.5"></path><path d="M629.97 150.99L723.76 253.44" stroke="rgba(14, 24, 94, 1)" stroke-width="1.5"></path><path d="M629.97 150.99L758.63 73.56" stroke="rgba(14, 24, 94, 1)" stroke-width="1.5"></path><path d="M629.97 150.99L501.72 269.91" stroke="rgba(14, 24, 94, 1)" stroke-width="1.5"></path><path d="M629.97 150.99L823.76 164.68" stroke="rgba(14, 24, 94, 1)" stroke-width="1.5"></path><path d="M635.62 389L635.62 389" stroke="rgba(14, 24, 94, 1)" stroke-width="1.5"></path><path d="M622.15 503.08L622.15 503.08" stroke="rgba(14, 24, 94, 1)" stroke-width="1.5"></path><path d="M622.15 503.08L635.62 389" stroke="rgba(14, 24, 94, 1)" stroke-width="1.5"></path><path d="M706.69 -64.58L706.69 -64.58" stroke="rgba(14, 24, 94, 1)" stroke-width="1.5"></path><path d="M706.69 -64.58L844.36 -60.01" stroke="rgba(14, 24, 94, 1)" stroke-width="1.5"></path><path d="M706.69 -64.58L758.63 73.56" stroke="rgba(14, 24, 94, 1)" stroke-width="1.5"></path><path d="M706.69 -64.58L845.05 75.13" stroke="rgba(14, 24, 94, 1)" stroke-width="1.5"></path><path d="M706.69 -64.58L740.8 154.9" stroke="rgba(14, 24, 94, 1)" stroke-width="1.5"></path><path d="M758.63 73.56L758.63 73.56" stroke="rgba(14, 24, 94, 1)" stroke-width="1.5"></path><path d="M758.63 73.56L740.8 154.9" stroke="rgba(14, 24, 94, 1)" stroke-width="1.5"></path><path d="M758.63 73.56L845.05 75.13" stroke="rgba(14, 24, 94, 1)" stroke-width="1.5"></path><path d="M758.63 73.56L823.76 164.68" stroke="rgba(14, 24, 94, 1)" stroke-width="1.5"></path><path d="M740.8 154.9L740.8 154.9" stroke="rgba(14, 24, 94, 1)" stroke-width="1.5"></path><path d="M740.8 154.9L823.76 164.68" stroke="rgba(14, 24, 94, 1)" stroke-width="1.5"></path><path d="M723.76 253.44L723.76 253.44" stroke="rgba(14, 24, 94, 1)" stroke-width="1.5"></path><path d="M723.76 253.44L740.8 154.9" stroke="rgba(14, 24, 94, 1)" stroke-width="1.5"></path><path d="M723.76 253.44L754.25 368.9" stroke="rgba(14, 24, 94, 1)" stroke-width="1.5"></path><path d="M723.76 253.44L848.75 283.02" stroke="rgba(14, 24, 94, 1)" stroke-width="1.5"></path><path d="M723.76 253.44L823.76 164.68" stroke="rgba(14, 24, 94, 1)" stroke-width="1.5"></path><path d="M754.25 368.9L754.25 368.9" stroke="rgba(14, 24, 94, 1)" stroke-width="1.5"></path><path d="M754.25 368.9L635.62 389" stroke="rgba(14, 24, 94, 1)" stroke-width="1.5"></path><path d="M730.51 593.41L730.51 593.41" stroke="rgba(14, 24, 94, 1)" stroke-width="1.5"></path><path d="M730.51 593.41L860.53 604.43" stroke="rgba(14, 24, 94, 1)" stroke-width="1.5"></path><path d="M730.51 593.41L846.95 518.45" stroke="rgba(14, 24, 94, 1)" stroke-width="1.5"></path><path d="M730.51 593.41L622.15 503.08" stroke="rgba(14, 24, 94, 1)" stroke-width="1.5"></path><path d="M730.51 593.41L929.05 517.47" stroke="rgba(14, 24, 94, 1)" stroke-width="1.5"></path><path d="M730.51 593.41L518.19 608.66" stroke="rgba(14, 24, 94, 1)" stroke-width="1.5"></path><path d="M730.51 593.41L635.62 389" stroke="rgba(14, 24, 94, 1)" stroke-width="1.5"></path><path d="M844.36 -60.01L844.36 -60.01" stroke="rgba(14, 24, 94, 1)" stroke-width="1.5"></path><path d="M844.36 -60.01L970 -79.38" stroke="rgba(14, 24, 94, 1)" stroke-width="1.5"></path><path d="M844.36 -60.01L845.05 75.13" stroke="rgba(14, 24, 94, 1)" stroke-width="1.5"></path><path d="M844.36 -60.01L961.78 44.2" stroke="rgba(14, 24, 94, 1)" stroke-width="1.5"></path><path d="M844.36 -60.01L758.63 73.56" stroke="rgba(14, 24, 94, 1)" stroke-width="1.5"></path><path d="M845.05 75.13L845.05 75.13" stroke="rgba(14, 24, 94, 1)" stroke-width="1.5"></path><path d="M845.05 75.13L823.76 164.68" stroke="rgba(14, 24, 94, 1)" stroke-width="1.5"></path><path d="M823.76 164.68L823.76 164.68" stroke="rgba(14, 24, 94, 1)" stroke-width="1.5"></path><path d="M848.75 283.02L848.75 283.02" stroke="rgba(14, 24, 94, 1)" stroke-width="1.5"></path><path d="M848.75 283.02L823.76 164.68" stroke="rgba(14, 24, 94, 1)" stroke-width="1.5"></path><path d="M848.75 283.02L754.25 368.9" stroke="rgba(14, 24, 94, 1)" stroke-width="1.5"></path><path d="M848.75 283.02L946.32 405.41" stroke="rgba(14, 24, 94, 1)" stroke-width="1.5"></path><path d="M848.75 283.02L977.74 194.13" stroke="rgba(14, 24, 94, 1)" stroke-width="1.5"></path><path d="M848.75 283.02L740.8 154.9" stroke="rgba(14, 24, 94, 1)" stroke-width="1.5"></path><path d="M846.95 518.45L846.95 518.45" stroke="rgba(14, 24, 94, 1)" stroke-width="1.5"></path><path d="M846.95 518.45L929.05 517.47" stroke="rgba(14, 24, 94, 1)" stroke-width="1.5"></path><path d="M846.95 518.45L860.53 604.43" stroke="rgba(14, 24, 94, 1)" stroke-width="1.5"></path><path d="M846.95 518.45L946.32 405.41" stroke="rgba(14, 24, 94, 1)" stroke-width="1.5"></path><path d="M846.95 518.45L754.25 368.9" stroke="rgba(14, 24, 94, 1)" stroke-width="1.5"></path><path d="M860.53 604.43L860.53 604.43" stroke="rgba(14, 24, 94, 1)" stroke-width="1.5"></path><path d="M860.53 604.43L929.05 517.47" stroke="rgba(14, 24, 94, 1)" stroke-width="1.5"></path><path d="M970 -79.38L970 -79.38" stroke="rgba(14, 24, 94, 1)" stroke-width="1.5"></path><path d="M970 -79.38L961.78 44.2" stroke="rgba(14, 24, 94, 1)" stroke-width="1.5"></path><path d="M970 -79.38L845.05 75.13" stroke="rgba(14, 24, 94, 1)" stroke-width="1.5"></path><path d="M970 -79.38L758.63 73.56" stroke="rgba(14, 24, 94, 1)" stroke-width="1.5"></path><path d="M961.78 44.2L961.78 44.2" stroke="rgba(14, 24, 94, 1)" stroke-width="1.5"></path><path d="M961.78 44.2L845.05 75.13" stroke="rgba(14, 24, 94, 1)" stroke-width="1.5"></path><path d="M961.78 44.2L977.74 194.13" stroke="rgba(14, 24, 94, 1)" stroke-width="1.5"></path><path d="M977.74 194.13L977.74 194.13" stroke="rgba(14, 24, 94, 1)" stroke-width="1.5"></path><path d="M977.74 194.13L823.76 164.68" stroke="rgba(14, 24, 94, 1)" stroke-width="1.5"></path><path d="M946.32 405.41L946.32 405.41" stroke="rgba(14, 24, 94, 1)" stroke-width="1.5"></path><path d="M946.32 405.41L929.05 517.47" stroke="rgba(14, 24, 94, 1)" stroke-width="1.5"></path><path d="M946.32 405.41L754.25 368.9" stroke="rgba(14, 24, 94, 1)" stroke-width="1.5"></path><path d="M929.05 517.47L929.05 517.47" stroke="rgba(14, 24, 94, 1)" stroke-width="1.5"></path><path d="M929.05 517.47L983.08 638.16" stroke="rgba(14, 24, 94, 1)" stroke-width="1.5"></path><path d="M983.08 638.16L983.08 638.16" stroke="rgba(14, 24, 94, 1)" stroke-width="1.5"></path><path d="M983.08 638.16L860.53 604.43" stroke="rgba(14, 24, 94, 1)" stroke-width="1.5"></path><path d="M983.08 638.16L846.95 518.45" stroke="rgba(14, 24, 94, 1)" stroke-width="1.5"></path><path d="M983.08 638.16L946.32 405.41" stroke="rgba(14, 24, 94, 1)" stroke-width="1.5"></path><path d="M983.08 638.16L730.51 593.41" stroke="rgba(14, 24, 94, 1)" stroke-width="1.5"></path><circle r="5" cx="-37.73" cy="529.32" fill="rgba(14, 24, 94, 1)"></circle><circle r="5" cx="-57.49" cy="598.71" fill="rgba(14, 24, 94, 1)"></circle><circle r="5" cx="75.98" cy="397.38" fill="rgba(14, 24, 94, 1)"></circle><circle r="5" cx="70.56" cy="526.76" fill="rgba(14, 24, 94, 1)"></circle><circle r="5" cx="47.13" cy="603.13" fill="rgba(14, 24, 94, 1)"></circle><circle r="5" cx="189.08" cy="411.62" fill="rgba(14, 24, 94, 1)"></circle><circle r="5" cx="147.97" cy="480.16" fill="rgba(14, 24, 94, 1)"></circle><circle r="5" cx="164.22" cy="591.13" fill="rgba(14, 24, 94, 1)"></circle><circle r="5" cx="267.85" cy="292.5" fill="rgba(14, 24, 94, 1)"></circle><circle r="5" cx="298.35" cy="381.18" fill="rgba(14, 24, 94, 1)"></circle><circle r="5" cx="301.88" cy="479.48" fill="rgba(14, 24, 94, 1)"></circle><circle r="5" cx="409.34" cy="255.42" fill="rgba(14, 24, 94, 1)"></circle><circle r="5" cx="406.68" cy="387.34" fill="rgba(14, 24, 94, 1)"></circle><circle r="5" cx="407.9" cy="498.85" fill="rgba(14, 24, 94, 1)"></circle><circle r="5" cx="394.84" cy="635.8" fill="rgba(14, 24, 94, 1)"></circle><circle r="5" cx="518.39" cy="191.52" fill="rgba(14, 24, 94, 1)"></circle><circle r="5" cx="501.72" cy="269.91" fill="rgba(14, 24, 94, 1)"></circle><circle r="5" cx="526.87" cy="400.65" fill="rgba(14, 24, 94, 1)"></circle><circle r="5" cx="501.23" cy="534.27" fill="rgba(14, 24, 94, 1)"></circle><circle r="5" cx="518.19" cy="608.66" fill="rgba(14, 24, 94, 1)"></circle><circle r="5" cx="625.54" cy="-57.89" fill="rgba(14, 24, 94, 1)"></circle><circle r="5" cx="629.97" cy="150.99" fill="rgba(14, 24, 94, 1)"></circle><circle r="5" cx="635.62" cy="389" fill="rgba(14, 24, 94, 1)"></circle><circle r="5" cx="622.15" cy="503.08" fill="rgba(14, 24, 94, 1)"></circle><circle r="5" cx="706.69" cy="-64.58" fill="rgba(14, 24, 94, 1)"></circle><circle r="5" cx="758.63" cy="73.56" fill="rgba(14, 24, 94, 1)"></circle><circle r="5" cx="740.8" cy="154.9" fill="rgba(14, 24, 94, 1)"></circle><circle r="5" cx="723.76" cy="253.44" fill="rgba(14, 24, 94, 1)"></circle><circle r="5" cx="754.25" cy="368.9" fill="rgba(14, 24, 94, 1)"></circle><circle r="5" cx="730.51" cy="593.41" fill="rgba(14, 24, 94, 1)"></circle><circle r="5" cx="844.36" cy="-60.01" fill="rgba(14, 24, 94, 1)"></circle><circle r="5" cx="845.05" cy="75.13" fill="rgba(14, 24, 94, 1)"></circle><circle r="5" cx="823.76" cy="164.68" fill="rgba(14, 24, 94, 1)"></circle><circle r="5" cx="848.75" cy="283.02" fill="rgba(14, 24, 94, 1)"></circle><circle r="5" cx="846.95" cy="518.45" fill="rgba(14, 24, 94, 1)"></circle><circle r="5" cx="860.53" cy="604.43" fill="rgba(14, 24, 94, 1)"></circle><circle r="5" cx="970" cy="-79.38" fill="rgba(14, 24, 94, 1)"></circle><circle r="5" cx="961.78" cy="44.2" fill="rgba(14, 24, 94, 1)"></circle><circle r="5" cx="977.74" cy="194.13" fill="rgba(14, 24, 94, 1)"></circle><circle r="5" cx="946.32" cy="405.41" fill="rgba(14, 24, 94, 1)"></circle><circle r="5" cx="929.05" cy="517.47" fill="rgba(14, 24, 94, 1)"></circle><circle r="5" cx="983.08" cy="638.16" fill="rgba(14, 24, 94, 1)"></circle><path d="M-47.24 522.89L-47.24 522.89" stroke="hsl(228.20000000000005, 95.1%, 31.4%)" stroke-width="1.5"></path><path d="M-47.24 522.89L-76.19 598.29" stroke="hsl(228.20000000000005, 95.1%, 31.4%)" stroke-width="1.5"></path><path d="M-47.24 522.89L47.2 524.62" stroke="hsl(228.20000000000005, 95.1%, 31.4%)" stroke-width="1.5"></path><path d="M-47.24 522.89L155.46 529.51" stroke="hsl(228.20000000000005, 95.1%, 31.4%)" stroke-width="1.5"></path><path d="M-47.24 522.89L194.53 612.97" stroke="hsl(228.20000000000005, 95.1%, 31.4%)" stroke-width="1.5"></path><path d="M-47.24 522.89L297.59 483.05" stroke="hsl(228.20000000000005, 95.1%, 31.4%)" stroke-width="1.5"></path><path d="M-47.24 522.89L308.88 621.58" stroke="hsl(228.20000000000005, 95.1%, 31.4%)" stroke-width="1.5"></path><path d="M373.51 415.26L373.51 415.26" stroke="hsl(228.20000000000005, 95.1%, 31.4%)" stroke-width="1.5"></path><path d="M373.51 415.26L396.63 506.99" stroke="hsl(228.20000000000005, 95.1%, 31.4%)" stroke-width="1.5"></path><path d="M373.51 415.26L297.59 483.05" stroke="hsl(228.20000000000005, 95.1%, 31.4%)" stroke-width="1.5"></path><path d="M373.51 415.26L478.73 386.98" stroke="hsl(228.20000000000005, 95.1%, 31.4%)" stroke-width="1.5"></path><path d="M396.63 506.99L396.63 506.99" stroke="hsl(228.20000000000005, 95.1%, 31.4%)" stroke-width="1.5"></path><path d="M396.63 506.99L297.59 483.05" stroke="hsl(228.20000000000005, 95.1%, 31.4%)" stroke-width="1.5"></path><path d="M396.63 506.99L505.6 502.87" stroke="hsl(228.20000000000005, 95.1%, 31.4%)" stroke-width="1.5"></path><path d="M478.73 386.98L478.73 386.98" stroke="hsl(228.20000000000005, 95.1%, 31.4%)" stroke-width="1.5"></path><path d="M478.73 386.98L505.6 502.87" stroke="hsl(228.20000000000005, 95.1%, 31.4%)" stroke-width="1.5"></path><path d="M515.18 643.99L515.18 643.99" stroke="hsl(228.20000000000005, 95.1%, 31.4%)" stroke-width="1.5"></path><path d="M515.18 643.99L623.08 590.86" stroke="hsl(228.20000000000005, 95.1%, 31.4%)" stroke-width="1.5"></path><path d="M515.18 643.99L383.39 641.65" stroke="hsl(228.20000000000005, 95.1%, 31.4%)" stroke-width="1.5"></path><path d="M623.08 590.86L623.08 590.86" stroke="hsl(228.20000000000005, 95.1%, 31.4%)" stroke-width="1.5"></path><path d="M623.08 590.86L646.2 533.99" stroke="hsl(228.20000000000005, 95.1%, 31.4%)" stroke-width="1.5"></path><path d="M623.08 590.86L732.28 599.26" stroke="hsl(228.20000000000005, 95.1%, 31.4%)" stroke-width="1.5"></path><path d="M623.08 590.86L720.99 526" stroke="hsl(228.20000000000005, 95.1%, 31.4%)" stroke-width="1.5"></path><path d="M623.08 590.86L505.6 502.87" stroke="hsl(228.20000000000005, 95.1%, 31.4%)" stroke-width="1.5"></path><path d="M732.28 599.26L732.28 599.26" stroke="hsl(228.20000000000005, 95.1%, 31.4%)" stroke-width="1.5"></path><path d="M732.28 599.26L720.99 526" stroke="hsl(228.20000000000005, 95.1%, 31.4%)" stroke-width="1.5"></path><path d="M732.28 599.26L646.2 533.99" stroke="hsl(228.20000000000005, 95.1%, 31.4%)" stroke-width="1.5"></path><path d="M732.28 599.26L850.74 598.73" stroke="hsl(228.20000000000005, 95.1%, 31.4%)" stroke-width="1.5"></path><path d="M732.28 599.26L825.25 513" stroke="hsl(228.20000000000005, 95.1%, 31.4%)" stroke-width="1.5"></path><path d="M867.73 43.83L867.73 43.83" stroke="hsl(228.20000000000005, 95.1%, 31.4%)" stroke-width="1.5"></path><path d="M867.73 43.83L834.3 -34.06" stroke="hsl(228.20000000000005, 95.1%, 31.4%)" stroke-width="1.5"></path><path d="M867.73 43.83L981.58 61.76" stroke="hsl(228.20000000000005, 95.1%, 31.4%)" stroke-width="1.5"></path><path d="M867.73 43.83L866.7 161" stroke="hsl(228.20000000000005, 95.1%, 31.4%)" stroke-width="1.5"></path><path d="M867.73 43.83L744.85 64.26" stroke="hsl(228.20000000000005, 95.1%, 31.4%)" stroke-width="1.5"></path><path d="M867.73 43.83L957.36 -64.98" stroke="hsl(228.20000000000005, 95.1%, 31.4%)" stroke-width="1.5"></path><path d="M867.73 43.83L756.63 -44.94" stroke="hsl(228.20000000000005, 95.1%, 31.4%)" stroke-width="1.5"></path><path d="M850.74 598.73L850.74 598.73" stroke="hsl(228.20000000000005, 95.1%, 31.4%)" stroke-width="1.5"></path><path d="M850.74 598.73L825.25 513" stroke="hsl(228.20000000000005, 95.1%, 31.4%)" stroke-width="1.5"></path><path d="M850.74 598.73L951.62 627.23" stroke="hsl(228.20000000000005, 95.1%, 31.4%)" stroke-width="1.5"></path><path d="M850.74 598.73L720.99 526" stroke="hsl(228.20000000000005, 95.1%, 31.4%)" stroke-width="1.5"></path><path d="M850.74 598.73L975.28 493.06" stroke="hsl(228.20000000000005, 95.1%, 31.4%)" stroke-width="1.5"></path><path d="M850.74 598.73L829.36 408.46" stroke="hsl(228.20000000000005, 95.1%, 31.4%)" stroke-width="1.5"></path><path d="M957.36 -64.98L957.36 -64.98" stroke="hsl(228.20000000000005, 95.1%, 31.4%)" stroke-width="1.5"></path><path d="M957.36 -64.98L834.3 -34.06" stroke="hsl(228.20000000000005, 95.1%, 31.4%)" stroke-width="1.5"></path><path d="M957.36 -64.98L981.58 61.76" stroke="hsl(228.20000000000005, 95.1%, 31.4%)" stroke-width="1.5"></path><path d="M972.46 146.75L972.46 146.75" stroke="hsl(228.20000000000005, 95.1%, 31.4%)" stroke-width="1.5"></path><path d="M972.46 146.75L981.58 61.76" stroke="hsl(228.20000000000005, 95.1%, 31.4%)" stroke-width="1.5"></path><path d="M972.46 146.75L866.7 161" stroke="hsl(228.20000000000005, 95.1%, 31.4%)" stroke-width="1.5"></path><path d="M-76.19 598.29L-76.19 598.29" stroke="hsl(228.20000000000005, 95.1%, 31.4%)" stroke-width="1.5"></path><path d="M-76.19 598.29L47.2 524.62" stroke="hsl(228.20000000000005, 95.1%, 31.4%)" stroke-width="1.5"></path><path d="M47.2 524.62L47.2 524.62" stroke="hsl(228.20000000000005, 95.1%, 31.4%)" stroke-width="1.5"></path><path d="M47.2 524.62L155.46 529.51" stroke="hsl(228.20000000000005, 95.1%, 31.4%)" stroke-width="1.5"></path><path d="M155.46 529.51L155.46 529.51" stroke="hsl(228.20000000000005, 95.1%, 31.4%)" stroke-width="1.5"></path><path d="M155.46 529.51L194.53 612.97" stroke="hsl(228.20000000000005, 95.1%, 31.4%)" stroke-width="1.5"></path><path d="M155.46 529.51L297.59 483.05" stroke="hsl(228.20000000000005, 95.1%, 31.4%)" stroke-width="1.5"></path><path d="M155.46 529.51L308.88 621.58" stroke="hsl(228.20000000000005, 95.1%, 31.4%)" stroke-width="1.5"></path><path d="M194.53 612.97L194.53 612.97" stroke="hsl(228.20000000000005, 95.1%, 31.4%)" stroke-width="1.5"></path><path d="M194.53 612.97L308.88 621.58" stroke="hsl(228.20000000000005, 95.1%, 31.4%)" stroke-width="1.5"></path><path d="M297.59 483.05L297.59 483.05" stroke="hsl(228.20000000000005, 95.1%, 31.4%)" stroke-width="1.5"></path><path d="M308.88 621.58L308.88 621.58" stroke="hsl(228.20000000000005, 95.1%, 31.4%)" stroke-width="1.5"></path><path d="M308.88 621.58L383.39 641.65" stroke="hsl(228.20000000000005, 95.1%, 31.4%)" stroke-width="1.5"></path><path d="M308.88 621.58L297.59 483.05" stroke="hsl(228.20000000000005, 95.1%, 31.4%)" stroke-width="1.5"></path><path d="M308.88 621.58L396.63 506.99" stroke="hsl(228.20000000000005, 95.1%, 31.4%)" stroke-width="1.5"></path><path d="M383.39 641.65L383.39 641.65" stroke="hsl(228.20000000000005, 95.1%, 31.4%)" stroke-width="1.5"></path><path d="M505.6 502.87L505.6 502.87" stroke="hsl(228.20000000000005, 95.1%, 31.4%)" stroke-width="1.5"></path><path d="M610.31 254.17L610.31 254.17" stroke="hsl(228.20000000000005, 95.1%, 31.4%)" stroke-width="1.5"></path><path d="M610.31 254.17L735.14 268.09" stroke="hsl(228.20000000000005, 95.1%, 31.4%)" stroke-width="1.5"></path><path d="M610.31 254.17L737.58 173.3" stroke="hsl(228.20000000000005, 95.1%, 31.4%)" stroke-width="1.5"></path><path d="M610.31 254.17L617.5 412.22" stroke="hsl(228.20000000000005, 95.1%, 31.4%)" stroke-width="1.5"></path><path d="M610.31 254.17L478.73 386.98" stroke="hsl(228.20000000000005, 95.1%, 31.4%)" stroke-width="1.5"></path><path d="M610.31 254.17L744.97 402.28" stroke="hsl(228.20000000000005, 95.1%, 31.4%)" stroke-width="1.5"></path><path d="M617.5 412.22L617.5 412.22" stroke="hsl(228.20000000000005, 95.1%, 31.4%)" stroke-width="1.5"></path><path d="M617.5 412.22L646.2 533.99" stroke="hsl(228.20000000000005, 95.1%, 31.4%)" stroke-width="1.5"></path><path d="M617.5 412.22L744.97 402.28" stroke="hsl(228.20000000000005, 95.1%, 31.4%)" stroke-width="1.5"></path><path d="M646.2 533.99L646.2 533.99" stroke="hsl(228.20000000000005, 95.1%, 31.4%)" stroke-width="1.5"></path><path d="M646.2 533.99L720.99 526" stroke="hsl(228.20000000000005, 95.1%, 31.4%)" stroke-width="1.5"></path><path d="M646.2 533.99L505.6 502.87" stroke="hsl(228.20000000000005, 95.1%, 31.4%)" stroke-width="1.5"></path><path d="M646.2 533.99L744.97 402.28" stroke="hsl(228.20000000000005, 95.1%, 31.4%)" stroke-width="1.5"></path><path d="M756.63 -44.94L756.63 -44.94" stroke="hsl(228.20000000000005, 95.1%, 31.4%)" stroke-width="1.5"></path><path d="M756.63 -44.94L834.3 -34.06" stroke="hsl(228.20000000000005, 95.1%, 31.4%)" stroke-width="1.5"></path><path d="M756.63 -44.94L744.85 64.26" stroke="hsl(228.20000000000005, 95.1%, 31.4%)" stroke-width="1.5"></path><path d="M756.63 -44.94L957.36 -64.98" stroke="hsl(228.20000000000005, 95.1%, 31.4%)" stroke-width="1.5"></path><path d="M756.63 -44.94L737.58 173.3" stroke="hsl(228.20000000000005, 95.1%, 31.4%)" stroke-width="1.5"></path><path d="M744.85 64.26L744.85 64.26" stroke="hsl(228.20000000000005, 95.1%, 31.4%)" stroke-width="1.5"></path><path d="M744.85 64.26L737.58 173.3" stroke="hsl(228.20000000000005, 95.1%, 31.4%)" stroke-width="1.5"></path><path d="M744.85 64.26L834.3 -34.06" stroke="hsl(228.20000000000005, 95.1%, 31.4%)" stroke-width="1.5"></path><path d="M744.85 64.26L866.7 161" stroke="hsl(228.20000000000005, 95.1%, 31.4%)" stroke-width="1.5"></path><path d="M744.85 64.26L735.14 268.09" stroke="hsl(228.20000000000005, 95.1%, 31.4%)" stroke-width="1.5"></path><path d="M737.58 173.3L737.58 173.3" stroke="hsl(228.20000000000005, 95.1%, 31.4%)" stroke-width="1.5"></path><path d="M737.58 173.3L735.14 268.09" stroke="hsl(228.20000000000005, 95.1%, 31.4%)" stroke-width="1.5"></path><path d="M737.58 173.3L866.7 161" stroke="hsl(228.20000000000005, 95.1%, 31.4%)" stroke-width="1.5"></path><path d="M735.14 268.09L735.14 268.09" stroke="hsl(228.20000000000005, 95.1%, 31.4%)" stroke-width="1.5"></path><path d="M735.14 268.09L863.53 281.62" stroke="hsl(228.20000000000005, 95.1%, 31.4%)" stroke-width="1.5"></path><path d="M735.14 268.09L744.97 402.28" stroke="hsl(228.20000000000005, 95.1%, 31.4%)" stroke-width="1.5"></path><path d="M744.97 402.28L744.97 402.28" stroke="hsl(228.20000000000005, 95.1%, 31.4%)" stroke-width="1.5"></path><path d="M744.97 402.28L829.36 408.46" stroke="hsl(228.20000000000005, 95.1%, 31.4%)" stroke-width="1.5"></path><path d="M744.97 402.28L720.99 526" stroke="hsl(228.20000000000005, 95.1%, 31.4%)" stroke-width="1.5"></path><path d="M720.99 526L720.99 526" stroke="hsl(228.20000000000005, 95.1%, 31.4%)" stroke-width="1.5"></path><path d="M720.99 526L825.25 513" stroke="hsl(228.20000000000005, 95.1%, 31.4%)" stroke-width="1.5"></path><path d="M834.3 -34.06L834.3 -34.06" stroke="hsl(228.20000000000005, 95.1%, 31.4%)" stroke-width="1.5"></path><path d="M834.3 -34.06L981.58 61.76" stroke="hsl(228.20000000000005, 95.1%, 31.4%)" stroke-width="1.5"></path><path d="M866.7 161L866.7 161" stroke="hsl(228.20000000000005, 95.1%, 31.4%)" stroke-width="1.5"></path><path d="M866.7 161L863.53 281.62" stroke="hsl(228.20000000000005, 95.1%, 31.4%)" stroke-width="1.5"></path><path d="M863.53 281.62L863.53 281.62" stroke="hsl(228.20000000000005, 95.1%, 31.4%)" stroke-width="1.5"></path><path d="M863.53 281.62L978.98 271.16" stroke="hsl(228.20000000000005, 95.1%, 31.4%)" stroke-width="1.5"></path><path d="M863.53 281.62L829.36 408.46" stroke="hsl(228.20000000000005, 95.1%, 31.4%)" stroke-width="1.5"></path><path d="M829.36 408.46L829.36 408.46" stroke="hsl(228.20000000000005, 95.1%, 31.4%)" stroke-width="1.5"></path><path d="M829.36 408.46L825.25 513" stroke="hsl(228.20000000000005, 95.1%, 31.4%)" stroke-width="1.5"></path><path d="M829.36 408.46L969.36 378.03" stroke="hsl(228.20000000000005, 95.1%, 31.4%)" stroke-width="1.5"></path><path d="M829.36 408.46L720.99 526" stroke="hsl(228.20000000000005, 95.1%, 31.4%)" stroke-width="1.5"></path><path d="M825.25 513L825.25 513" stroke="hsl(228.20000000000005, 95.1%, 31.4%)" stroke-width="1.5"></path><path d="M825.25 513L744.97 402.28" stroke="hsl(228.20000000000005, 95.1%, 31.4%)" stroke-width="1.5"></path><path d="M981.58 61.76L981.58 61.76" stroke="hsl(228.20000000000005, 95.1%, 31.4%)" stroke-width="1.5"></path><path d="M981.58 61.76L866.7 161" stroke="hsl(228.20000000000005, 95.1%, 31.4%)" stroke-width="1.5"></path><path d="M978.98 271.16L978.98 271.16" stroke="hsl(228.20000000000005, 95.1%, 31.4%)" stroke-width="1.5"></path><path d="M978.98 271.16L969.36 378.03" stroke="hsl(228.20000000000005, 95.1%, 31.4%)" stroke-width="1.5"></path><path d="M978.98 271.16L972.46 146.75" stroke="hsl(228.20000000000005, 95.1%, 31.4%)" stroke-width="1.5"></path><path d="M978.98 271.16L866.7 161" stroke="hsl(228.20000000000005, 95.1%, 31.4%)" stroke-width="1.5"></path><path d="M969.36 378.03L969.36 378.03" stroke="hsl(228.20000000000005, 95.1%, 31.4%)" stroke-width="1.5"></path><path d="M969.36 378.03L975.28 493.06" stroke="hsl(228.20000000000005, 95.1%, 31.4%)" stroke-width="1.5"></path><path d="M969.36 378.03L863.53 281.62" stroke="hsl(228.20000000000005, 95.1%, 31.4%)" stroke-width="1.5"></path><path d="M969.36 378.03L825.25 513" stroke="hsl(228.20000000000005, 95.1%, 31.4%)" stroke-width="1.5"></path><path d="M975.28 493.06L975.28 493.06" stroke="hsl(228.20000000000005, 95.1%, 31.4%)" stroke-width="1.5"></path><path d="M975.28 493.06L951.62 627.23" stroke="hsl(228.20000000000005, 95.1%, 31.4%)" stroke-width="1.5"></path><path d="M951.62 627.23L951.62 627.23" stroke="hsl(228.20000000000005, 95.1%, 31.4%)" stroke-width="1.5"></path><path d="M951.62 627.23L825.25 513" stroke="hsl(228.20000000000005, 95.1%, 31.4%)" stroke-width="1.5"></path><path d="M951.62 627.23L732.28 599.26" stroke="hsl(228.20000000000005, 95.1%, 31.4%)" stroke-width="1.5"></path><circle r="25" cx="-47.24" cy="522.89" fill="url(&quot;#SvgjsRadialGradient1959&quot;)"></circle><circle r="25" cx="373.51" cy="415.26" fill="url(&quot;#SvgjsRadialGradient1959&quot;)"></circle><circle r="25" cx="396.63" cy="506.99" fill="url(&quot;#SvgjsRadialGradient1959&quot;)"></circle><circle r="25" cx="478.73" cy="386.98" fill="url(&quot;#SvgjsRadialGradient1959&quot;)"></circle><circle r="25" cx="515.18" cy="643.99" fill="url(&quot;#SvgjsRadialGradient1959&quot;)"></circle><circle r="25" cx="623.08" cy="590.86" fill="url(&quot;#SvgjsRadialGradient1959&quot;)"></circle><circle r="25" cx="732.28" cy="599.26" fill="url(&quot;#SvgjsRadialGradient1959&quot;)"></circle><circle r="25" cx="867.73" cy="43.83" fill="url(&quot;#SvgjsRadialGradient1959&quot;)"></circle><circle r="25" cx="850.74" cy="598.73" fill="url(&quot;#SvgjsRadialGradient1959&quot;)"></circle><circle r="25" cx="957.36" cy="-64.98" fill="url(&quot;#SvgjsRadialGradient1959&quot;)"></circle><circle r="25" cx="972.46" cy="146.75" fill="url(&quot;#SvgjsRadialGradient1959&quot;)"></circle><circle r="5" cx="-76.19" cy="598.29" fill="#818dbc"></circle><circle r="5" cx="47.2" cy="524.62" fill="#818dbc"></circle><circle r="5" cx="155.46" cy="529.51" fill="#818dbc"></circle><circle r="5" cx="194.53" cy="612.97" fill="#818dbc"></circle><circle r="5" cx="297.59" cy="483.05" fill="#818dbc"></circle><circle r="5" cx="308.88" cy="621.58" fill="#818dbc"></circle><circle r="5" cx="383.39" cy="641.65" fill="#818dbc"></circle><circle r="5" cx="505.6" cy="502.87" fill="#818dbc"></circle><circle r="5" cx="610.31" cy="254.17" fill="#818dbc"></circle><circle r="5" cx="617.5" cy="412.22" fill="#818dbc"></circle><circle r="5" cx="646.2" cy="533.99" fill="#818dbc"></circle><circle r="5" cx="756.63" cy="-44.94" fill="#818dbc"></circle><circle r="5" cx="744.85" cy="64.26" fill="#818dbc"></circle><circle r="5" cx="737.58" cy="173.3" fill="#818dbc"></circle><circle r="5" cx="735.14" cy="268.09" fill="#818dbc"></circle><circle r="5" cx="744.97" cy="402.28" fill="#818dbc"></circle><circle r="5" cx="720.99" cy="526" fill="#818dbc"></circle><circle r="5" cx="834.3" cy="-34.06" fill="#818dbc"></circle><circle r="5" cx="866.7" cy="161" fill="#818dbc"></circle><circle r="5" cx="863.53" cy="281.62" fill="#818dbc"></circle><circle r="5" cx="829.36" cy="408.46" fill="#818dbc"></circle><circle r="5" cx="825.25" cy="513" fill="#818dbc"></circle><circle r="5" cx="981.58" cy="61.76" fill="#818dbc"></circle><circle r="5" cx="978.98" cy="271.16" fill="#818dbc"></circle><circle r="5" cx="969.36" cy="378.03" fill="#818dbc"></circle><circle r="5" cx="975.28" cy="493.06" fill="#818dbc"></circle><circle r="5" cx="951.62" cy="627.23" fill="#818dbc"></circle></g><defs><mask id="SvgjsMask1957"><rect width="900" height="560" fill="#ffffff"></rect></mask><linearGradient x1="0%" y1="50%" x2="100%" y2="50%" gradientUnits="userSpaceOnUse" id="SvgjsLinearGradient1958"><stop stop-color="#0e2a47" offset="0"></stop><stop stop-color="rgba(0, 0, 0, 1)" offset="1"></stop></linearGradient><radialGradient id="SvgjsRadialGradient1959"><stop stop-color="#ffffff" offset="0.1"></stop><stop stop-color="rgba(3, 26, 120, 1)" offset="0.2"></stop><stop stop-color="rgba(3, 26, 120, 0)" offset="1"></stop></radialGradient></defs></svg>