<svg xmlns="http://www.w3.org/2000/svg" version="1.1" xmlns:xlink="http://www.w3.org/1999/xlink" xmlns:svgjs="http://svgjs.dev/svgjs" width="1440" height="560" preserveAspectRatio="none" viewBox="0 0 1440 560"><g mask="url(&quot;#SvgjsMask1449&quot;)" fill="none"><rect width="1440" height="560" x="0" y="0" fill="url(&quot;#SvgjsLinearGradient1450&quot;)"></rect><use xlink:href="#SvgjsSymbol1457" x="0" y="0"></use><use xlink:href="#SvgjsSymbol1457" x="720" y="0"></use></g><defs><mask id="SvgjsMask1449"><rect width="1440" height="560" fill="#ffffff"></rect></mask><linearGradient x1="50%" y1="100%" x2="50%" y2="0%" gradientUnits="userSpaceOnUse" id="SvgjsLinearGradient1450"><stop stop-color="#0e2a47" offset="0"></stop><stop stop-color="rgba(0, 69, 158, 1)" offset="1"></stop></linearGradient><path d="M-1 0 a1 1 0 1 0 2 0 a1 1 0 1 0 -2 0z" id="SvgjsPath1455"></path><path d="M-3 0 a3 3 0 1 0 6 0 a3 3 0 1 0 -6 0z" id="SvgjsPath1456"></path><path d="M-5 0 a5 5 0 1 0 10 0 a5 5 0 1 0 -10 0z" id="SvgjsPath1451"></path><path d="M2 -2 L-2 2z" id="SvgjsPath1454"></path><path d="M6 -6 L-6 6z" id="SvgjsPath1453"></path><path d="M30 -30 L-30 30z" id="SvgjsPath1452"></path></defs><symbol id="SvgjsSymbol1457"><use xlink:href="#SvgjsPath1451" x="30" y="30" stroke="#1c538e"></use><use xlink:href="#SvgjsPath1452" x="30" y="90" stroke="rgba(25, 39, 200, 1)" stroke-width="3"></use><use xlink:href="#SvgjsPath1453" x="30" y="150" stroke="#1c538e"></use><use xlink:href="#SvgjsPath1451" x="30" y="210" stroke="#1c538e"></use><use xlink:href="#SvgjsPath1453" x="30" y="270" stroke="rgba(25, 39, 200, 1)"></use><use xlink:href="#SvgjsPath1451" x="30" y="330" stroke="#1c538e"></use><use xlink:href="#SvgjsPath1453" x="30" y="390" stroke="rgba(25, 39, 200, 1)"></use><use xlink:href="#SvgjsPath1451" x="30" y="450" stroke="#1c538e"></use><use xlink:href="#SvgjsPath1454" x="30" y="510" stroke="#1c538e"></use><use xlink:href="#SvgjsPath1452" x="30" y="570" stroke="rgba(25, 39, 200, 1)" stroke-width="3"></use><use xlink:href="#SvgjsPath1451" x="90" y="30" stroke="#1c538e"></use><use xlink:href="#SvgjsPath1451" x="90" y="90" stroke="#1c538e"></use><use xlink:href="#SvgjsPath1454" x="90" y="150" stroke="rgba(25, 39, 200, 1)"></use><use xlink:href="#SvgjsPath1453" x="90" y="210" stroke="#1c538e"></use><use xlink:href="#SvgjsPath1451" x="90" y="270" stroke="rgba(25, 39, 200, 1)"></use><use xlink:href="#SvgjsPath1451" x="90" y="330" stroke="rgba(25, 39, 200, 1)"></use><use xlink:href="#SvgjsPath1451" x="90" y="390" stroke="rgba(25, 39, 200, 1)"></use><use xlink:href="#SvgjsPath1454" x="90" y="450" stroke="#1c538e"></use><use xlink:href="#SvgjsPath1454" x="90" y="510" stroke="rgba(25, 39, 200, 1)"></use><use xlink:href="#SvgjsPath1454" x="90" y="570" stroke="rgba(25, 39, 200, 1)"></use><use xlink:href="#SvgjsPath1455" x="150" y="30" stroke="rgba(25, 39, 200, 1)"></use><use xlink:href="#SvgjsPath1451" x="150" y="90" stroke="rgba(25, 39, 200, 1)"></use><use xlink:href="#SvgjsPath1453" x="150" y="150" stroke="rgba(25, 39, 200, 1)"></use><use xlink:href="#SvgjsPath1453" x="150" y="210" stroke="#1c538e"></use><use xlink:href="#SvgjsPath1456" x="150" y="270" stroke="#1c538e"></use><use xlink:href="#SvgjsPath1453" x="150" y="330" stroke="#1c538e"></use><use xlink:href="#SvgjsPath1451" x="150" y="390" stroke="rgba(25, 39, 200, 1)"></use><use xlink:href="#SvgjsPath1451" x="150" y="450" stroke="rgba(25, 39, 200, 1)"></use><use xlink:href="#SvgjsPath1453" x="150" y="510" stroke="#1c538e"></use><use xlink:href="#SvgjsPath1455" x="150" y="570" stroke="#1c538e"></use><use xlink:href="#SvgjsPath1453" x="210" y="30" stroke="#1c538e"></use><use xlink:href="#SvgjsPath1455" x="210" y="90" stroke="#1c538e"></use><use xlink:href="#SvgjsPath1455" x="210" y="150" stroke="#1c538e"></use><use xlink:href="#SvgjsPath1455" x="210" y="210" stroke="rgba(25, 39, 200, 1)"></use><use xlink:href="#SvgjsPath1453" x="210" y="270" stroke="#1c538e"></use><use xlink:href="#SvgjsPath1453" x="210" y="330" stroke="rgba(25, 39, 200, 1)"></use><use xlink:href="#SvgjsPath1452" x="210" y="390" stroke="#1c538e" stroke-width="3"></use><use xlink:href="#SvgjsPath1455" x="210" y="450" stroke="#1c538e"></use><use xlink:href="#SvgjsPath1451" x="210" y="510" stroke="#1c538e"></use><use xlink:href="#SvgjsPath1453" x="210" y="570" stroke="#1c538e"></use><use xlink:href="#SvgjsPath1454" x="270" y="30" stroke="#1c538e"></use><use xlink:href="#SvgjsPath1455" x="270" y="90" stroke="rgba(25, 39, 200, 1)"></use><use xlink:href="#SvgjsPath1455" x="270" y="150" stroke="rgba(25, 39, 200, 1)"></use><use xlink:href="#SvgjsPath1455" x="270" y="210" stroke="#1c538e"></use><use xlink:href="#SvgjsPath1451" x="270" y="270" stroke="#1c538e"></use><use xlink:href="#SvgjsPath1453" x="270" y="330" stroke="rgba(25, 39, 200, 1)"></use><use xlink:href="#SvgjsPath1451" x="270" y="390" stroke="rgba(25, 39, 200, 1)"></use><use xlink:href="#SvgjsPath1453" x="270" y="450" stroke="rgba(25, 39, 200, 1)"></use><use xlink:href="#SvgjsPath1453" x="270" y="510" stroke="rgba(25, 39, 200, 1)"></use><use xlink:href="#SvgjsPath1451" x="270" y="570" stroke="#1c538e"></use><use xlink:href="#SvgjsPath1454" x="330" y="30" stroke="rgba(25, 39, 200, 1)"></use><use xlink:href="#SvgjsPath1451" x="330" y="90" stroke="rgba(25, 39, 200, 1)"></use><use xlink:href="#SvgjsPath1455" x="330" y="150" stroke="#1c538e"></use><use xlink:href="#SvgjsPath1456" x="330" y="210" stroke="#1c538e"></use><use xlink:href="#SvgjsPath1456" x="330" y="270" stroke="rgba(25, 39, 200, 1)"></use><use xlink:href="#SvgjsPath1454" x="330" y="330" stroke="rgba(25, 39, 200, 1)"></use><use xlink:href="#SvgjsPath1453" x="330" y="390" stroke="rgba(25, 39, 200, 1)"></use><use xlink:href="#SvgjsPath1451" x="330" y="450" stroke="#1c538e"></use><use xlink:href="#SvgjsPath1451" x="330" y="510" stroke="#1c538e"></use><use xlink:href="#SvgjsPath1451" x="330" y="570" stroke="rgba(25, 39, 200, 1)"></use><use xlink:href="#SvgjsPath1451" x="390" y="30" stroke="#1c538e"></use><use xlink:href="#SvgjsPath1451" x="390" y="90" stroke="#1c538e"></use><use xlink:href="#SvgjsPath1455" x="390" y="150" stroke="rgba(25, 39, 200, 1)"></use><use xlink:href="#SvgjsPath1454" x="390" y="210" stroke="#1c538e"></use><use xlink:href="#SvgjsPath1454" x="390" y="270" stroke="#1c538e"></use><use xlink:href="#SvgjsPath1451" x="390" y="330" stroke="rgba(25, 39, 200, 1)"></use><use xlink:href="#SvgjsPath1451" x="390" y="390" stroke="rgba(25, 39, 200, 1)"></use><use xlink:href="#SvgjsPath1455" x="390" y="450" stroke="#1c538e"></use><use xlink:href="#SvgjsPath1451" x="390" y="510" stroke="rgba(25, 39, 200, 1)"></use><use xlink:href="#SvgjsPath1453" x="390" y="570" stroke="rgba(25, 39, 200, 1)"></use><use xlink:href="#SvgjsPath1453" x="450" y="30" stroke="#1c538e"></use><use xlink:href="#SvgjsPath1453" x="450" y="90" stroke="rgba(25, 39, 200, 1)"></use><use xlink:href="#SvgjsPath1451" x="450" y="150" stroke="rgba(25, 39, 200, 1)"></use><use xlink:href="#SvgjsPath1454" x="450" y="210" stroke="#1c538e"></use><use xlink:href="#SvgjsPath1454" x="450" y="270" stroke="#1c538e"></use><use xlink:href="#SvgjsPath1454" x="450" y="330" stroke="#1c538e"></use><use xlink:href="#SvgjsPath1455" x="450" y="390" stroke="#1c538e"></use><use xlink:href="#SvgjsPath1455" x="450" y="450" stroke="rgba(25, 39, 200, 1)"></use><use xlink:href="#SvgjsPath1453" x="450" y="510" stroke="#1c538e"></use><use xlink:href="#SvgjsPath1453" x="450" y="570" stroke="rgba(25, 39, 200, 1)"></use><use xlink:href="#SvgjsPath1454" x="510" y="30" stroke="rgba(25, 39, 200, 1)"></use><use xlink:href="#SvgjsPath1453" x="510" y="90" stroke="rgba(25, 39, 200, 1)"></use><use xlink:href="#SvgjsPath1455" x="510" y="150" stroke="rgba(25, 39, 200, 1)"></use><use xlink:href="#SvgjsPath1454" x="510" y="210" stroke="#1c538e"></use><use xlink:href="#SvgjsPath1451" x="510" y="270" stroke="rgba(25, 39, 200, 1)"></use><use xlink:href="#SvgjsPath1453" x="510" y="330" stroke="#1c538e"></use><use xlink:href="#SvgjsPath1456" x="510" y="390" stroke="rgba(25, 39, 200, 1)"></use><use xlink:href="#SvgjsPath1451" x="510" y="450" stroke="#1c538e"></use><use xlink:href="#SvgjsPath1455" x="510" y="510" stroke="rgba(25, 39, 200, 1)"></use><use xlink:href="#SvgjsPath1455" x="510" y="570" stroke="rgba(25, 39, 200, 1)"></use><use xlink:href="#SvgjsPath1452" x="570" y="30" stroke="rgba(25, 39, 200, 1)" stroke-width="3"></use><use xlink:href="#SvgjsPath1451" x="570" y="90" stroke="#1c538e"></use><use xlink:href="#SvgjsPath1455" x="570" y="150" stroke="#1c538e"></use><use xlink:href="#SvgjsPath1451" x="570" y="210" stroke="#1c538e"></use><use xlink:href="#SvgjsPath1454" x="570" y="270" stroke="#1c538e"></use><use xlink:href="#SvgjsPath1456" x="570" y="330" stroke="#1c538e"></use><use xlink:href="#SvgjsPath1455" x="570" y="390" stroke="#1c538e"></use><use xlink:href="#SvgjsPath1455" x="570" y="450" stroke="#1c538e"></use><use xlink:href="#SvgjsPath1451" x="570" y="510" stroke="#1c538e"></use><use xlink:href="#SvgjsPath1453" x="570" y="570" stroke="#1c538e"></use><use xlink:href="#SvgjsPath1456" x="630" y="30" stroke="#1c538e"></use><use xlink:href="#SvgjsPath1454" x="630" y="90" stroke="#1c538e"></use><use xlink:href="#SvgjsPath1452" x="630" y="150" stroke="#1c538e" stroke-width="3"></use><use xlink:href="#SvgjsPath1455" x="630" y="210" stroke="rgba(25, 39, 200, 1)"></use><use xlink:href="#SvgjsPath1453" x="630" y="270" stroke="#1c538e"></use><use xlink:href="#SvgjsPath1451" x="630" y="330" stroke="rgba(25, 39, 200, 1)"></use><use xlink:href="#SvgjsPath1451" x="630" y="390" stroke="rgba(25, 39, 200, 1)"></use><use xlink:href="#SvgjsPath1451" x="630" y="450" stroke="#1c538e"></use><use xlink:href="#SvgjsPath1451" x="630" y="510" stroke="rgba(25, 39, 200, 1)"></use><use xlink:href="#SvgjsPath1454" x="630" y="570" stroke="#1c538e"></use><use xlink:href="#SvgjsPath1455" x="690" y="30" stroke="rgba(25, 39, 200, 1)"></use><use xlink:href="#SvgjsPath1453" x="690" y="90" stroke="#1c538e"></use><use xlink:href="#SvgjsPath1454" x="690" y="150" stroke="#1c538e"></use><use xlink:href="#SvgjsPath1454" x="690" y="210" stroke="rgba(25, 39, 200, 1)"></use><use xlink:href="#SvgjsPath1455" x="690" y="270" stroke="#1c538e"></use><use xlink:href="#SvgjsPath1454" x="690" y="330" stroke="rgba(25, 39, 200, 1)"></use><use xlink:href="#SvgjsPath1453" x="690" y="390" stroke="#1c538e"></use><use xlink:href="#SvgjsPath1451" x="690" y="450" stroke="#1c538e"></use><use xlink:href="#SvgjsPath1452" x="690" y="510" stroke="rgba(25, 39, 200, 1)" stroke-width="3"></use><use xlink:href="#SvgjsPath1454" x="690" y="570" stroke="#1c538e"></use></symbol></svg>