<svg xmlns="http://www.w3.org/2000/svg" version="1.1" xmlns:xlink="http://www.w3.org/1999/xlink" xmlns:svgjs="http://svgjs.dev/svgjs" width="1440" height="560" preserveAspectRatio="none" viewBox="0 0 1440 560"><g mask="url(&quot;#SvgjsMask1279&quot;)" fill="none"><rect width="1440" height="560" x="0" y="0" fill="url(&quot;#SvgjsLinearGradient1280&quot;)"></rect><path d="M934.34 277.69 a107.91 107.91 0 1 0 215.82 0 a107.91 107.91 0 1 0 -215.82 0z" fill="rgba(28, 83, 142, 0.4)" class="triangle-float1"></path><path d="M513.319,312.806C569.969,310.718,595.949,248.201,623.579,198.702C650.141,151.117,684.33,99.141,659.732,50.512C633.576,-1.195,571.263,-19.767,513.319,-19.27C456.358,-18.782,398.748,3.132,371.189,52.985C344.344,101.547,361.395,158.703,388.025,207.383C416.101,258.707,454.858,314.96,513.319,312.806" fill="rgba(28, 83, 142, 0.4)" class="triangle-float2"></path><path d="M886.008,101.669C906.001,101.995,928.422,101.909,939.522,85.277C951.536,67.275,948.216,43.456,937.351,24.738C926.533,6.102,907.556,-6.846,886.008,-6.911C864.353,-6.976,844.69,5.524,834.126,24.427C823.814,42.879,823.651,66.031,835.437,83.578C846.136,99.506,866.823,101.356,886.008,101.669" fill="rgba(28, 83, 142, 0.4)" class="triangle-float3"></path><path d="M612.8625131731498 167.96760482183868L654.8775765592312 68.9863183435037 555.8962900808963 26.971254957422246 513.8812266948148 125.95254143575723z" fill="rgba(28, 83, 142, 0.4)" class="triangle-float3"></path><path d="M121.111,608.679C151.324,606.813,171.717,581.654,187.178,555.629C203.109,528.813,218.135,497.459,203.569,469.878C188.325,441.014,153.742,429.669,121.111,430.529C90.066,431.348,62.029,447.525,45.855,474.037C28.928,501.783,23.357,536.397,39.215,564.768C55.413,593.748,87.975,610.726,121.111,608.679" fill="rgba(28, 83, 142, 0.4)" class="triangle-float3"></path><path d="M328.11534117916244 413.5090267122508L268.21971677472504 406.1547687697466 287.13614206318755 499.67533434765477z" fill="rgba(28, 83, 142, 0.4)" class="triangle-float2"></path><path d="M1188.7479507868723-30.125090200585753L1165.166296666019 80.81786980768769 1276.1092566742923 104.39952392854104 1299.6909107951458-6.543436079732388z" fill="rgba(28, 83, 142, 0.4)" class="triangle-float1"></path><path d="M118.233,394.301C152.785,395.687,183.862,375.092,201.857,345.563C220.677,314.68,228.946,275.08,209.452,244.617C190.976,215.745,152.45,212.864,118.233,214.884C88.224,216.656,59.117,228.441,43.941,254.39C28.626,280.576,31.249,312.496,45.476,339.289C60.759,368.071,85.671,392.995,118.233,394.301" fill="rgba(28, 83, 142, 0.4)" class="triangle-float1"></path><path d="M715.998,262.136C754.438,259.931,779.102,226.004,798.417,192.696C817.823,159.232,835.976,120.472,818.021,86.208C799.122,50.143,756.7,34.302,715.998,35.414C677.267,36.472,643.122,58.304,623.197,91.533C602.631,125.831,596.281,168.067,615.39,203.197C635.295,239.791,674.409,264.522,715.998,262.136" fill="rgba(28, 83, 142, 0.4)" class="triangle-float1"></path><path d="M466.63 482.15 a106.77 106.77 0 1 0 213.54 0 a106.77 106.77 0 1 0 -213.54 0z" fill="rgba(28, 83, 142, 0.4)" class="triangle-float2"></path><path d="M220.0603603468833 83.08421621507487L315.88370385134624 172.44092963713774 405.2404172734091 76.61758613267482 309.4170737689462-12.739127289388051z" fill="rgba(28, 83, 142, 0.4)" class="triangle-float1"></path><path d="M311.0019851948034 551.9265624450675L415.60868339483403 614.7806078799671 478.46272882973363 510.1739096799364 373.856030629703 447.31986424503685z" fill="rgba(28, 83, 142, 0.4)" class="triangle-float3"></path><path d="M645.7320841307425-37.718996071413294L665.1501276095912 72.40620088272752 775.275324563732 52.98815740387872 755.8572810848833-57.137039550262095z" fill="rgba(28, 83, 142, 0.4)" class="triangle-float3"></path><path d="M231.07408560392156 51.859463689905176L156.8836960540063-8.218729184133906 96.80550317996719 65.97166036578137 170.99589272988248 126.04985323982046z" fill="rgba(28, 83, 142, 0.4)" class="triangle-float2"></path><path d="M70.49850910705294 370.49603466612837L114.1510691976982 291.74473162274876-25.802165412693775 265.64154300847065z" fill="rgba(28, 83, 142, 0.4)" class="triangle-float3"></path><path d="M1459.393294133735 114.7019094629641L1436.9061968662327 30.7789199459025 1352.9832073491712 53.26601721340476 1375.4703046166735 137.18900673046636z" fill="rgba(28, 83, 142, 0.4)" class="triangle-float1"></path><path d="M365.929,516.727C392.407,517.39,420.737,510.238,433.973,487.296C447.204,464.363,438.878,436.463,425.376,413.689C412.202,391.469,391.76,372.357,365.929,372.529C340.331,372.699,320.334,392.13,307.835,414.47C295.678,436.198,291.246,462.38,303.545,484.028C315.975,505.908,340.773,516.097,365.929,516.727" fill="rgba(28, 83, 142, 0.4)" class="triangle-float2"></path></g><defs><mask id="SvgjsMask1279"><rect width="1440" height="560" fill="#ffffff"></rect></mask><linearGradient x1="84.72%" y1="139.29%" x2="15.28%" y2="-39.29%" gradientUnits="userSpaceOnUse" id="SvgjsLinearGradient1280"><stop stop-color="#0e2a47" offset="0"></stop><stop stop-color="rgba(121, 160, 211, 1)" offset="1"></stop></linearGradient><style>
                @keyframes float1 {
                    0%{transform: translate(0, 0)}
                    50%{transform: translate(-10px, 0)}
                    100%{transform: translate(0, 0)}
                }

                .triangle-float1 {
                    animation: float1 5s infinite;
                }

                @keyframes float2 {
                    0%{transform: translate(0, 0)}
                    50%{transform: translate(-5px, -5px)}
                    100%{transform: translate(0, 0)}
                }

                .triangle-float2 {
                    animation: float2 4s infinite;
                }

                @keyframes float3 {
                    0%{transform: translate(0, 0)}
                    50%{transform: translate(0, -10px)}
                    100%{transform: translate(0, 0)}
                }

                .triangle-float3 {
                    animation: float3 6s infinite;
                }
            </style></defs></svg>